<svg width="297" height="37" viewBox="0 0 297 37" fill="none" xmlns="http://www.w3.org/2000/svg">
<path d="M61.5921 26.64C60.7012 26.4131 60.3869 26.263 59.7204 24.5666C59.375 23.7428 57.8521 19.5995 56.7884 16.5383L56.5708 15.924C56.2911 15.1142 56.0252 14.4126 55.8939 13.9623C55.7627 13.512 55.6453 13.3759 55.5141 13.3759C55.3828 13.3759 55.3034 13.4806 55.1687 13.6376L55.1342 13.676L54.6438 14.5138C54.588 14.6268 54.5396 14.7434 54.4987 14.8628L54.4677 14.971C54.4276 15.1173 54.378 15.2607 54.3192 15.4004C53.9186 16.4057 53.183 18.3255 52.4923 20.1755C51.6842 22.3152 50.921 24.3362 50.6723 24.9017C50.1094 26.1967 49.8539 26.2979 48.9111 26.6156L48.8351 26.64C48.4897 26.7552 48.3481 26.9646 48.3481 27.1147C48.3481 27.3521 48.6279 27.3835 48.8765 27.3835C48.9974 27.3835 49.2219 27.366 49.5154 27.3486C49.9713 27.3172 50.5514 27.2788 50.9935 27.2788C51.4355 27.2788 51.8016 27.2997 52.0917 27.3172C52.2897 27.3311 52.4589 27.3381 52.5993 27.3381C52.9999 27.3381 53.2313 27.2194 53.2313 27.01C53.2313 26.8006 53.0379 26.6959 52.6408 26.5772C51.7981 26.3084 51.6842 26.0012 51.6842 25.7394C51.6842 25.2542 52.1849 23.5229 52.7202 22.1197C52.7617 22.0569 52.8445 21.9801 52.8998 21.9801C53.3487 21.9173 55.2758 21.8998 56.2324 21.8998C56.6261 21.8998 56.8402 21.9522 56.8678 22.0674L57.0612 22.6189C57.4428 23.6003 57.7623 24.6053 58.0178 25.6277C58.0972 26.0536 58.1663 26.4201 57.2512 26.6156C56.8782 26.6819 56.7124 26.8599 56.7124 27.01C56.7124 27.1008 56.778 27.3207 57.4031 27.3207C57.6414 27.3207 57.8348 27.3207 58.0351 27.2997C58.2354 27.2788 58.5013 27.2788 58.8466 27.2788C59.3267 27.2788 59.824 27.3067 60.3075 27.3346C60.715 27.3591 61.0983 27.3835 61.4126 27.3835C61.8857 27.3835 62.124 27.2718 62.124 27.0344C62.124 26.7971 61.8719 26.7273 61.5921 26.64ZM56.4327 20.7514C56.4349 20.7841 56.425 20.8164 56.4051 20.8422C55.963 20.8806 55.0927 20.8876 54.333 20.891C53.9255 20.891 53.5387 20.891 53.259 20.891C53.2531 20.8941 53.2466 20.8957 53.24 20.8957C53.2334 20.8957 53.2268 20.8941 53.221 20.891C53.2172 20.8822 53.2152 20.8727 53.2152 20.8631C53.2152 20.8535 53.2172 20.844 53.221 20.8352C53.4005 20.1196 54.6645 16.6675 54.8061 16.2765L54.8303 16.2242C54.8442 16.2437 54.8558 16.2647 54.8648 16.287C55.0237 16.5558 56.0493 19.5751 56.4327 20.7514Z" fill="black"/>
<path d="M76.7389 13.6656C76.5386 13.6656 76.2589 13.683 75.9584 13.704C75.658 13.7249 75.2228 13.7493 74.9224 13.7493C74.546 13.7493 74.2317 13.7493 73.952 13.7249C73.6722 13.7005 73.5065 13.7075 73.2924 13.7075C72.9816 13.7075 72.6431 13.8052 72.6431 14.0181C72.6431 14.231 72.8469 14.3672 73.1335 14.4509C73.6066 14.5975 74.0107 14.7442 74.1695 15.0513C74.213 15.2205 74.222 15.3969 74.1959 15.5698C74.1698 15.7426 74.1091 15.9082 74.0176 16.0566C73.6135 17.0444 72.9608 18.6326 72.3392 20.1371C71.5518 22.0569 70.7955 23.865 70.7195 24.1093L70.6988 24.1408C70.6988 24.1408 70.6608 24.1198 70.6228 24.0814C69.8527 22.2 67.6874 16.4406 67.3421 15.3794C67.3122 15.2978 67.3001 15.2107 67.3067 15.1239C67.3132 15.0372 67.3383 14.9529 67.3801 14.8768C67.6063 14.6291 67.9176 14.478 68.2503 14.4544C68.72 14.3776 68.7891 14.1473 68.7891 14.0181C68.7891 13.889 68.5542 13.7075 68.24 13.7075C68.0293 13.7075 67.7427 13.7075 67.4353 13.7249C67.052 13.7249 66.6168 13.7493 66.2266 13.7493C65.6188 13.7493 65.118 13.7109 64.714 13.683C64.455 13.6621 64.2478 13.6446 64.0889 13.6446C63.7436 13.6446 63.4189 13.7598 63.4189 13.9937C63.4189 14.2275 63.6883 14.3427 63.9301 14.4056C64.7589 14.6569 65.2009 15.1281 65.6222 16.2067C65.9089 16.9048 67.8532 21.9766 68.5508 23.8859C68.9902 24.9861 69.3435 26.1193 69.6075 27.2753C69.6172 27.3783 69.6598 27.4753 69.729 27.5515C69.7982 27.6278 69.8902 27.6791 69.9909 27.6976C70.2568 27.6976 70.4087 27.387 70.4778 27.1985C70.8207 26.0553 71.2313 24.934 71.7072 23.8406C71.8937 23.3763 72.1182 22.8318 72.3979 22.1546C73.2855 19.9102 73.8069 18.7897 74.3595 17.6169C74.584 17.1352 74.8188 16.636 75.0847 16.0392C75.544 15.0583 75.9964 14.6429 76.8114 14.4265C76.9841 14.3881 77.3882 14.2694 77.3882 14.0111C77.3882 13.7528 77.0359 13.6656 76.7389 13.6656Z" fill="black"/>
<path d="M91.7442 24.2804C91.5819 24.2804 91.4438 24.4409 91.2228 24.8982C90.7876 25.7743 90.2938 26.2246 89.5686 26.4096C88.9348 26.5117 88.2936 26.5595 87.6519 26.5527C87.0366 26.556 86.4222 26.5081 85.8147 26.4096C85.7296 26.3697 85.6544 26.3111 85.5946 26.238C85.5349 26.1649 85.4921 26.0793 85.4693 25.9873C85.3271 25.4288 85.2597 24.8535 85.269 24.2769V23.8092C85.269 22.8423 85.269 21.3832 85.3312 21.0167C85.3312 20.9818 85.4175 20.8841 85.4555 20.8841C85.9977 20.8841 86.8369 20.8841 87.4689 20.9259C88.6845 20.9853 88.7432 21.0237 89.0229 21.9731C89.0885 22.214 89.2405 22.4758 89.427 22.4758C89.4556 22.475 89.4839 22.4684 89.51 22.4564C89.5361 22.4444 89.5595 22.4273 89.5789 22.4059C89.6933 22.2285 89.7399 22.0152 89.7102 21.8056C89.7102 21.6694 89.6929 21.5473 89.686 21.4216C89.686 21.1738 89.648 20.9155 89.648 20.5385C89.648 20.0149 89.6722 19.5925 89.7102 19.0445C89.7325 18.8831 89.6983 18.7189 89.6135 18.5803C89.5983 18.5607 89.5789 18.5449 89.5567 18.534C89.5346 18.5231 89.5103 18.5174 89.4857 18.5175C89.3268 18.5175 89.1921 18.6745 89.0644 18.9957C88.719 19.9032 88.681 19.9975 86.7609 19.9975H85.4348C85.3968 19.9975 85.3795 19.9521 85.3554 19.8578C85.3139 19.5402 85.3761 15.6377 85.4175 15.1142C85.4555 14.6534 85.6662 14.5871 85.6662 14.5871C85.8941 14.5871 86.1773 14.5871 86.4777 14.5871C87.1697 14.5793 87.8616 14.6119 88.5498 14.6848C89.1334 14.7791 89.5858 14.9396 89.8656 16.0566C89.9001 16.2207 90.0002 16.6046 90.2524 16.6046C90.5045 16.6046 90.5977 16.3533 90.5977 16.0042C90.5977 15.8367 90.5977 15.6552 90.5977 15.4039C90.5977 15.0548 90.5701 14.601 90.5701 14.0076C90.5493 13.8959 90.4457 13.7284 90.3421 13.7284H90.3214C90.0244 13.7668 89.1403 13.7877 88.4566 13.7877H85.4624C84.7234 13.7877 84.1397 13.7633 83.6286 13.7424C83.1935 13.7214 82.786 13.704 82.3474 13.704C82.0366 13.704 81.7189 13.8261 81.7189 14.053C81.7189 14.2799 81.933 14.3637 82.3543 14.4649C83.2246 14.6709 83.4111 14.8908 83.449 15.7878C83.4767 16.2067 83.4767 16.5418 83.4732 17.5331C83.4732 17.9729 83.4732 18.5419 83.4732 19.3028C83.4732 21.7742 83.38 24.2525 83.3109 25.2368C83.228 26.27 82.8827 26.4096 81.8466 26.6609C81.4219 26.7692 81.2319 26.8878 81.2319 27.0519C81.2319 27.3556 81.5773 27.4009 81.9226 27.4009C82.268 27.4009 82.5684 27.3765 82.8758 27.3556C83.1831 27.3346 83.639 27.2962 84.2226 27.2962C86.8542 27.2962 89.3096 27.3975 90.356 27.4428H90.8394C90.9741 27.4428 91.1848 27.2474 91.2297 27.1706C91.5319 26.4381 91.7812 25.6845 91.9756 24.9157C92.0164 24.7209 91.9831 24.5178 91.8824 24.3467C91.8665 24.325 91.8456 24.3076 91.8215 24.2961C91.7974 24.2845 91.7709 24.2791 91.7442 24.2804Z" fill="black"/>
<path d="M109.82 26.6784C109.041 26.5418 108.341 26.1145 107.858 25.4811C106.662 24.0139 105.608 22.4335 104.712 20.7619C104.705 20.7201 104.707 20.6773 104.718 20.6364C104.728 20.5955 104.748 20.5573 104.774 20.5245C104.864 20.4617 105.054 20.3605 105.206 20.2802C105.292 20.2348 105.365 20.1964 105.403 20.172C105.902 19.8542 106.317 19.4169 106.609 18.8989C106.902 18.3808 107.064 17.7979 107.081 17.2015C107.077 16.7008 106.969 16.2064 106.766 15.7498C106.563 15.2931 106.268 14.8841 105.9 14.5487C105.161 13.9274 104.156 13.6586 102.543 13.6586C101.939 13.6586 101.224 13.6935 100.596 13.7179C100.074 13.7424 99.5837 13.7633 99.2452 13.7633H98.1056C97.8017 13.7633 97.4943 13.8017 97.4943 14.074C97.4943 14.3462 97.781 14.423 98.0296 14.4858C98.9344 14.7092 99.0657 14.7442 99.152 15.4702C99.2349 16.287 99.2729 18.2242 99.2729 21.4041C99.2729 22.6538 99.1934 24.8424 99.152 25.5056C99.0933 26.2665 98.7583 26.3747 97.8639 26.6644L97.7603 26.7063C97.5461 26.7866 97.3804 26.8494 97.3804 27.0344C97.3804 27.2194 97.6048 27.3835 97.9675 27.3835C98.0676 27.3835 98.3128 27.3835 98.6202 27.3486C98.9897 27.3241 99.4145 27.2997 99.6182 27.2997C100.388 27.2997 100.851 27.3381 101.255 27.373C101.583 27.4009 101.866 27.4254 102.243 27.4254C102.333 27.4254 102.792 27.366 102.792 27.0938C102.792 26.9367 102.592 26.7831 102.257 26.6819C101.341 26.462 101.12 26.2107 101.082 25.338C101.02 24.1477 100.979 21.4984 101 21.1284C101 21.09 101.082 20.9399 101.186 20.9399C101.669 20.937 102.148 21.0258 102.599 21.2017C102.898 21.5136 103.164 21.8564 103.393 22.2244C104.084 23.3554 105.189 25.0658 105.962 26.1513C106.301 26.5653 106.722 26.9033 107.198 27.1437C107.674 27.3841 108.194 27.5217 108.725 27.5475C109.113 27.5581 109.5 27.5063 109.872 27.394C110.006 27.3241 110.189 27.2334 110.189 27.0693C110.189 26.9053 110.003 26.7273 109.82 26.6784ZM101.117 14.9361C101.149 14.7909 101.221 14.6577 101.324 14.5522C101.635 14.4662 101.955 14.4193 102.277 14.4125C103.004 14.4336 103.702 14.7073 104.253 15.1875C104.767 15.7493 105.083 16.4672 105.151 17.2294C105.149 17.7281 105.028 18.219 104.799 18.6607C104.57 19.1024 104.24 19.4819 103.835 19.7671C103.045 20.1266 102.187 20.3077 101.321 20.2976C101.256 20.2841 101.197 20.2523 101.15 20.2059C101.103 20.1596 101.07 20.1005 101.055 20.0358C100.993 19.6798 101.055 15.6657 101.117 14.9361Z" fill="black"/>
<path d="M126.324 13.6656C126.192 13.6656 125.933 13.6656 125.609 13.697C125.122 13.7214 124.514 13.7493 124.062 13.7493C123.837 13.7493 123.644 13.7493 123.443 13.7493C123.243 13.7493 123.012 13.7493 122.753 13.7493C122.407 13.7493 122.224 13.8366 122.224 13.9972C122.224 14.1577 122.349 14.3776 122.697 14.4719C123.139 14.5766 123.357 14.6918 123.43 14.8593C123.502 15.0269 123.43 15.2433 123.253 15.5575L123.153 15.725C122.556 16.7268 121.164 19.069 120.622 19.8578C120.605 19.8997 120.536 19.9137 120.525 19.8962C119.651 18.4442 118.108 15.8332 117.859 15.3306V15.3096C117.714 15.0304 117.607 14.8244 117.662 14.6988C117.718 14.5731 117.859 14.5242 118.139 14.4579C118.484 14.3672 118.633 14.1542 118.633 13.9832C118.633 13.8122 118.46 13.7144 118.125 13.7144C117.68 13.7144 117.434 13.7144 117.199 13.7389C116.965 13.7633 116.854 13.7389 116.578 13.7389C115.967 13.7389 115.321 13.697 114.851 13.6656C114.585 13.6481 114.375 13.6342 114.264 13.6342C113.877 13.6342 113.656 13.7319 113.656 13.9029C113.656 14.074 113.884 14.2974 114.271 14.3776C115.138 14.5801 115.376 14.8559 116.343 16.3149C117.31 17.774 118.581 19.9416 118.923 20.6816C119.002 20.9194 119.062 21.1634 119.102 21.4111C119.102 22.6189 119.102 24.8703 119.04 25.722C119.009 26.1583 118.567 26.4864 117.766 26.6679C117.193 26.7796 117.148 27.017 117.148 27.1042C117.148 27.1915 117.189 27.394 117.714 27.394C117.818 27.394 118.028 27.394 118.322 27.3591C118.892 27.3242 119.752 27.2683 120.563 27.2683C120.822 27.2683 121.254 27.2927 121.616 27.3172C121.931 27.3346 122.197 27.3521 122.335 27.3521C122.68 27.3521 123.008 27.3172 123.008 27.0624C123.008 26.8669 122.822 26.7342 122.411 26.6295C121.309 26.3468 121.088 26.1129 121.009 25.701C120.929 25.0448 120.888 22.4792 120.888 21.2855C120.971 20.8428 121.142 20.4215 121.389 20.0463C121.623 19.6973 121.91 19.2435 122.21 18.7688C122.798 17.8298 123.464 16.7722 124.093 15.9763C124.721 15.1805 125.312 14.6255 126.282 14.3707C126.627 14.2694 126.855 14.1542 126.855 13.9378C126.855 13.7214 126.565 13.6656 126.324 13.6656Z" fill="black"/>
<path d="M147.027 19.7601C147.01 19.7451 146.999 19.7238 146.996 19.7008C147.513 19.4488 147.946 19.0511 148.244 18.5555C148.542 18.06 148.691 17.4879 148.675 16.9083C148.672 16.3729 148.536 15.8469 148.279 15.3789C148.022 14.9109 147.652 14.516 147.203 14.231C146.602 13.8296 145.542 13.6132 144.299 13.6132C143.857 13.6132 143.163 13.6551 142.493 13.6935C141.916 13.7284 141.367 13.7598 141.063 13.7598H139.682C139.381 13.7598 139.074 13.875 139.074 14.1089C139.074 14.3427 139.364 14.4579 139.654 14.5033C140.742 14.6429 140.79 14.8524 140.887 15.2887C140.993 16.3789 141.033 17.4746 141.008 18.5698C141.008 22.6991 140.908 24.9506 140.846 25.4043V25.4497C140.77 26.1478 140.745 26.3677 139.374 26.626C139.181 26.6609 138.815 26.7866 138.815 27.017C138.815 27.2474 139.16 27.366 139.464 27.366H140.02C140.258 27.366 140.517 27.366 140.77 27.366C141.295 27.366 142.151 27.3905 142.883 27.4149C143.47 27.4149 143.978 27.4498 144.23 27.4498C145.097 27.4498 146.851 27.2439 147.904 26.4794C148.428 26.1481 148.857 25.6836 149.148 25.1324C149.439 24.5811 149.582 23.9624 149.562 23.3379C149.572 21.7113 148.716 20.535 147.027 19.7601ZM144.503 26.6365C143.989 26.5668 143.514 26.3203 143.159 25.9384C142.997 25.7553 142.89 25.5286 142.852 25.2857C142.744 23.8922 142.717 22.4936 142.773 21.097C142.807 20.6851 142.859 20.5874 142.9 20.528C143.174 20.4355 143.461 20.3918 143.75 20.3989C144.48 20.3675 145.208 20.5011 145.881 20.7898C146.377 21.0295 146.796 21.4061 147.089 21.8761C147.382 22.3461 147.538 22.8904 147.538 23.4461C147.538 25.331 146.292 26.6365 144.503 26.6365ZM145.756 19.1388C145.245 19.4878 143.778 19.6519 142.918 19.6519C142.769 19.6519 142.752 19.5053 142.752 19.439C142.752 17.0374 142.793 15.4807 142.873 14.8244C142.928 14.7186 142.998 14.6211 143.08 14.5347C143.358 14.4497 143.644 14.3947 143.933 14.3707C145.756 14.3707 146.848 15.369 146.848 17.0409C146.846 17.4535 146.746 17.8597 146.556 18.2249C146.366 18.5901 146.092 18.9036 145.756 19.1388Z" fill="black"/>
<path d="M167.292 26.6784C166.511 26.5442 165.809 26.1165 165.327 25.4811C164.129 24.0148 163.076 22.4343 162.181 20.7619C162.174 20.7201 162.176 20.6773 162.186 20.6364C162.197 20.5955 162.216 20.5573 162.243 20.5245C162.383 20.4356 162.527 20.354 162.675 20.2802C162.758 20.2348 162.833 20.1964 162.871 20.172C163.37 19.8535 163.784 19.4161 164.077 18.8982C164.37 18.3802 164.532 17.7977 164.55 17.2015C164.546 16.7004 164.438 16.2057 164.234 15.7489C164.03 15.2922 163.734 14.8834 163.365 14.5487C162.63 13.9274 161.639 13.6586 160.012 13.6586C159.408 13.6586 158.693 13.6935 158.061 13.7179C157.543 13.7424 157.052 13.7633 156.714 13.7633H155.571C155.27 13.7633 154.963 13.8017 154.963 14.074C154.963 14.3462 155.246 14.423 155.498 14.4858C156.403 14.7092 156.534 14.7442 156.617 15.4702C156.7 16.287 156.742 18.2208 156.742 21.4042C156.742 22.6433 156.659 24.8668 156.617 25.5056C156.562 26.2665 156.227 26.3747 155.333 26.6644L155.226 26.7063C155.015 26.7866 154.849 26.8494 154.849 27.0344C154.849 27.2194 155.074 27.3835 155.436 27.3835C155.536 27.3835 155.782 27.3835 156.089 27.3486C156.458 27.3241 156.88 27.2997 157.087 27.2997C157.857 27.2997 158.32 27.3381 158.724 27.373C159.069 27.4009 159.332 27.4254 159.712 27.4254C159.801 27.4254 160.257 27.366 160.257 27.0938C160.257 26.9367 160.06 26.7796 159.725 26.6819C158.81 26.462 158.589 26.2107 158.548 25.338C158.489 24.1477 158.448 21.4984 158.468 21.1284C158.468 21.09 158.551 20.9399 158.651 20.9399C159.134 20.9375 159.613 21.025 160.064 21.1982C160.364 21.512 160.631 21.8558 160.862 22.2244C161.552 23.3589 162.661 25.0692 163.431 26.1513C163.77 26.5653 164.191 26.9033 164.667 27.1437C165.142 27.3841 165.662 27.5217 166.194 27.5475C166.582 27.558 166.969 27.5061 167.34 27.394C167.471 27.3241 167.658 27.2299 167.658 27.0693C167.658 26.9088 167.468 26.7273 167.292 26.6784ZM158.582 14.9361C158.615 14.7906 158.688 14.6575 158.793 14.5522C159.104 14.4662 159.424 14.4193 159.746 14.4125C160.472 14.4339 161.168 14.7076 161.718 15.1875C162.234 15.7485 162.551 16.4667 162.619 17.2294C162.618 17.7285 162.497 18.2199 162.267 18.6617C162.038 19.1035 161.706 19.4827 161.3 19.7671C160.512 20.1271 159.655 20.3082 158.79 20.2976C158.724 20.2847 158.665 20.2532 158.617 20.2068C158.569 20.1603 158.535 20.101 158.52 20.0358C158.461 19.6798 158.513 15.6657 158.582 14.9361Z" fill="black"/>
<path d="M182.211 24.2804C182.049 24.2804 181.91 24.4409 181.689 24.8982C181.251 25.7743 180.757 26.2246 180.035 26.4096C179.401 26.5114 178.76 26.5593 178.119 26.5527C177.503 26.5562 176.889 26.5083 176.281 26.4096C176.197 26.3691 176.122 26.3103 176.062 26.2373C176.002 26.1643 175.959 26.079 175.936 25.9873C175.796 25.4285 175.728 24.8534 175.736 24.2769V23.8092C175.736 22.8423 175.736 21.3832 175.798 21.0167C175.798 20.9783 175.888 20.8841 175.922 20.8841C176.464 20.8841 177.304 20.8841 177.936 20.9259C179.151 20.9853 179.21 21.0237 179.49 21.9731C179.555 22.214 179.707 22.4758 179.894 22.4758C179.922 22.4754 179.95 22.4689 179.975 22.4569C180.001 22.4449 180.024 22.4275 180.042 22.4059C180.16 22.2298 180.208 22.0157 180.177 21.8056C180.177 21.6694 180.16 21.5473 180.149 21.4216C180.132 21.1738 180.115 20.9155 180.115 20.5385C180.115 20.0184 180.139 19.596 180.177 19.0445C180.199 18.8831 180.165 18.7189 180.08 18.5803C180.065 18.5607 180.046 18.5449 180.023 18.534C180.001 18.5231 179.977 18.5174 179.952 18.5175C179.794 18.5175 179.659 18.671 179.531 18.9957C179.186 19.9032 179.148 19.9975 177.224 19.9975H175.901C175.863 19.9975 175.846 19.9521 175.822 19.8578C175.781 19.5472 175.843 15.6412 175.884 15.1142C175.922 14.6534 176.133 14.5871 176.133 14.5871C176.361 14.5871 176.641 14.5871 176.944 14.5871C177.636 14.5795 178.328 14.6121 179.016 14.6848C179.597 14.7791 180.053 14.9396 180.329 16.0566C180.363 16.2207 180.463 16.6046 180.712 16.6046C180.961 16.6046 181.078 16.3533 181.078 16.0042C181.078 15.8367 181.078 15.6552 181.078 15.4039C181.078 15.0548 181.051 14.601 181.051 14.0076C181.03 13.8959 180.926 13.7284 180.823 13.7284H180.802C180.505 13.7668 179.621 13.7877 178.937 13.7877H175.919C175.18 13.7877 174.596 13.7633 174.082 13.7424C173.65 13.7214 173.242 13.704 172.804 13.704C172.493 13.704 172.175 13.8261 172.175 14.053C172.175 14.2799 172.389 14.3637 172.811 14.4649C173.681 14.6709 173.864 14.8908 173.905 15.7878C173.933 16.2067 173.933 16.5418 173.93 17.5331C173.93 17.9729 173.93 18.5419 173.93 19.3028C173.93 21.7672 173.833 24.2455 173.767 25.2368C173.688 26.3154 173.336 26.455 172.324 26.7063C171.899 26.8145 171.709 26.9332 171.709 27.0973C171.709 27.4009 172.054 27.4463 172.379 27.4463C172.704 27.4463 173.028 27.4219 173.336 27.4009C173.643 27.38 174.099 27.3416 174.679 27.3416C177.314 27.3416 179.769 27.4428 180.816 27.4882H181.296C181.434 27.4882 181.641 27.2927 181.689 27.2159C181.99 26.4829 182.239 25.7294 182.435 24.961C182.475 24.7663 182.442 24.5636 182.342 24.3921C182.333 24.3629 182.316 24.337 182.292 24.3173C182.269 24.2975 182.241 24.2847 182.211 24.2804Z" fill="black"/>
<path d="M205.884 13.6865C205.563 13.6865 205.228 13.704 204.897 13.7214C204.565 13.7389 204.251 13.7493 203.95 13.7493C203.767 13.7493 203.553 13.7493 203.325 13.7493C203.097 13.7493 202.814 13.7249 202.565 13.7249C202.317 13.7249 201.978 13.7598 201.978 14.0356C201.978 14.245 202.324 14.3846 202.489 14.4265C202.918 14.5522 203.153 14.6988 203.253 14.9012C203.353 15.1037 203.315 15.4458 203.101 15.9728C201.875 18.8281 200.252 22.563 199.378 24.4758C199.333 24.5561 199.309 24.5631 199.309 24.5631C199.309 24.5631 199.281 24.5631 199.26 24.4758C198.867 23.7358 197.955 21.7008 197.226 19.9381C197.191 19.8471 197.173 19.7498 197.175 19.6519C198 17.9904 198.666 16.7058 199.105 15.9414C199.668 14.9117 199.944 14.6534 200.656 14.4684C201.018 14.3776 201.27 14.2904 201.27 14.0146C201.27 13.9169 201.205 13.7458 200.763 13.7458C200.614 13.7458 200.4 13.7458 200.151 13.7633C199.806 13.7633 199.444 13.7877 199.095 13.7877C198.746 13.7877 198.425 13.7877 198.169 13.7633C197.986 13.7633 197.824 13.7458 197.668 13.7458C197.368 13.7458 197.019 13.7808 197.019 14.0565C197.019 14.1891 197.244 14.3637 197.492 14.4265C197.886 14.5277 198.183 14.6359 198.276 14.8558C198.369 15.0758 198.325 15.4108 198.083 15.9519C197.624 17.034 197.244 17.8857 196.809 18.7967C196.788 18.8029 196.767 18.8029 196.746 18.7967C195.942 16.9607 195.465 15.8123 195.272 15.3585C195.141 15.0548 195.078 14.8558 195.144 14.7302C195.21 14.6045 195.41 14.5242 195.859 14.4405C196.308 14.3567 196.394 14.1158 196.394 13.9832C196.394 13.7842 196.111 13.6935 195.828 13.6935L195.465 13.704C195.092 13.7214 194.529 13.7493 193.894 13.7493C193.497 13.7493 193.065 13.7493 192.723 13.7493H192.222C191.811 13.7493 191.573 13.8575 191.573 14.0391C191.573 14.1438 191.646 14.3358 192.126 14.4719C192.885 14.6918 192.996 14.8209 193.593 16.109C193.856 16.6849 194.785 18.8246 195.551 20.7025C195.57 20.7383 195.581 20.7775 195.584 20.8177C195.587 20.8579 195.582 20.8983 195.569 20.9364C194.878 22.5386 193.973 24.3711 193.821 24.6225C193.821 24.6399 193.773 24.6225 193.763 24.6225C192.36 21.5333 190.174 16.2451 189.777 15.2433C189.748 15.1793 189.733 15.1096 189.733 15.0391C189.733 14.9686 189.748 14.8989 189.777 14.8349C189.853 14.6883 190.047 14.5766 190.375 14.4858C190.789 14.3637 190.965 14.231 190.965 14.0321C190.965 13.7214 190.54 13.7214 190.399 13.7214L189.881 13.7424C189.477 13.7633 188.976 13.7842 188.689 13.7842C188.282 13.7842 187.971 13.7842 187.653 13.7563C187.336 13.7284 186.963 13.7214 186.521 13.7214C186.175 13.7214 185.934 13.8506 185.934 14.0111C185.934 14.259 186.279 14.4056 186.507 14.4475C187.36 14.6325 187.522 14.9606 187.888 15.6796C187.95 15.8088 188.023 15.9519 188.102 16.102C188.821 17.5366 190.737 22.0813 191.501 23.9802C192.209 25.6871 192.499 26.5318 192.692 27.0938L192.765 27.2962C192.878 27.5894 192.968 27.7291 193.182 27.7291C193.341 27.7291 193.621 27.4533 193.707 27.209C194.305 25.6153 194.982 24.0531 195.734 22.5281L196.08 21.83C196.101 21.8347 196.119 21.8472 196.132 21.8649C196.349 22.378 196.591 22.94 196.853 23.5299C197.408 24.7162 197.893 25.9342 198.307 27.1775C198.435 27.6104 198.653 27.6558 198.732 27.6558C198.953 27.6558 199.171 27.3067 199.257 27.0973C199.81 25.701 199.924 25.4148 201.312 22.1791C202.431 19.5925 203.553 17.3725 204.033 16.4266L204.24 16.0112C204.814 14.8768 205.19 14.615 205.967 14.4579C206.205 14.4021 206.52 14.2974 206.52 14.0216C206.471 13.8436 206.371 13.6865 205.884 13.6865Z" fill="black"/>
<path d="M215.723 26.6574C214.425 26.3922 214.342 26.0291 214.287 24.9122C214.249 24.3013 214.225 23.0866 214.225 21.8091C214.225 17.8298 214.242 16.3882 214.346 15.6866L214.363 15.5644C214.428 15.0583 214.487 14.6255 215.54 14.4021C215.913 14.3288 216.117 14.1822 216.117 13.9867C216.117 13.8471 216.02 13.676 215.551 13.676C215.205 13.676 214.943 13.676 214.646 13.704C214.349 13.7319 213.91 13.7389 213.372 13.7389C213.026 13.7389 212.57 13.7389 212.139 13.7074C211.759 13.69 211.403 13.676 211.151 13.676C210.806 13.676 210.585 13.7947 210.585 13.9867C210.585 14.1787 210.785 14.3357 211.203 14.423C212.277 14.6185 212.294 14.8907 212.349 15.7983V15.8472C212.391 16.5453 212.408 19.1423 212.408 20.4093C212.408 22.1092 212.37 24.3188 212.308 25.0762C212.229 26.0361 212.163 26.3224 211.175 26.5423C210.737 26.633 210.516 26.7726 210.516 26.9576C210.516 27.1426 210.671 27.3067 211.106 27.3067C211.541 27.3067 211.738 27.3067 211.97 27.2823C212.201 27.2578 212.363 27.2648 212.66 27.2648C212.888 27.2648 213.278 27.2857 213.731 27.3137C214.366 27.3486 215.088 27.3905 215.692 27.3905C215.938 27.3905 216.3 27.2857 216.3 27.0589C216.3 26.832 216.086 26.7203 215.723 26.6574Z" fill="black"/>
<path d="M236.168 13.6656C235.923 13.6656 235.65 13.683 235.363 13.704C235.077 13.7249 234.648 13.7493 234.255 13.7493C233.861 13.7493 233.592 13.7493 233.288 13.7493H232.504C232.283 13.7493 231.917 13.7842 231.917 13.9972C231.917 14.2101 232.114 14.3916 232.507 14.5138C233.543 14.8279 233.726 15.2852 233.747 15.7355C233.813 16.4336 233.847 17.1561 233.847 17.8298C233.847 18.7408 233.847 19.5751 233.847 20.3291C233.847 22.0429 233.864 23.2856 233.795 23.7533C233.795 23.7882 233.754 23.879 233.726 23.879C233.699 23.879 233.709 23.879 233.695 23.858C228.885 18.4895 227.365 16.7024 226.94 16.1474C226.129 15.0653 225.611 14.4265 225.324 14.0775C225.262 14.0111 225.031 13.7877 224.854 13.7877C224.229 13.7877 223.622 13.7668 223.128 13.7493C222.813 13.7493 222.544 13.7249 222.364 13.7249C222.019 13.7249 221.632 13.7633 221.632 14.0356C221.632 14.2066 221.798 14.3358 222.126 14.4265L222.306 14.4754C223.079 14.6848 223.287 14.7407 223.801 15.362C223.913 15.6712 223.958 16.0006 223.936 16.3289C223.936 17.8961 223.691 22.3606 223.549 24.7516C223.473 26.2037 223.138 26.3189 222.254 26.626L222.164 26.6574C221.881 26.7412 221.715 26.8983 221.715 27.0693C221.715 27.3591 222.061 27.3591 222.302 27.3591C222.468 27.3591 222.672 27.3591 222.886 27.3381C223.1 27.3172 223.39 27.3172 223.625 27.3172C224.012 27.3172 224.426 27.3451 224.827 27.373C225.227 27.4009 225.517 27.4219 225.804 27.4219C226.091 27.4219 226.516 27.387 226.516 27.0728C226.516 26.8669 226.339 26.7238 225.963 26.64C225.037 26.3608 224.806 26.078 224.727 25.1286C224.699 24.7341 224.727 23.3833 224.727 21.9347C224.727 21.0411 224.727 20.1196 224.727 19.4006C224.744 18.2382 224.778 17.6029 224.803 17.1387C224.803 16.9502 224.823 16.7896 224.83 16.6256C224.831 16.6196 224.832 16.6138 224.835 16.6084C224.838 16.6031 224.841 16.5984 224.846 16.5945C224.85 16.5906 224.855 16.5876 224.861 16.5858C224.867 16.5839 224.873 16.5832 224.879 16.5837C224.892 16.5834 224.906 16.5869 224.918 16.5936C224.93 16.6003 224.94 16.6102 224.948 16.6221C225.897 17.7914 227.324 19.4704 228.705 21.097C229.979 22.5979 231.295 24.1512 232.217 25.2857C232.528 25.6766 232.784 26.0222 233.008 26.3328C233.174 26.5562 233.329 26.7691 233.478 26.9541C233.654 27.195 234.117 27.6523 234.441 27.6523C234.666 27.6523 234.787 27.3975 234.787 27.1566C234.787 27.0275 234.769 26.7238 234.742 26.3398C234.7 25.7394 234.645 24.9226 234.645 24.3816C234.645 20.8457 234.825 16.7617 234.869 15.9414C234.928 14.8593 235.26 14.6813 236.13 14.4719C236.562 14.3113 236.696 14.1124 236.696 13.9623C236.696 13.69 236.423 13.6656 236.168 13.6656Z" fill="black"/>
<path d="M253.525 21.5298C253.179 21.5298 252.834 21.5508 252.489 21.5752C252.202 21.5926 251.933 21.6101 251.708 21.6101C251.363 21.6101 250.769 21.5857 250.23 21.5612C249.798 21.5438 249.425 21.5298 249.263 21.5298C248.824 21.5298 248.593 21.7043 248.593 21.8789C248.593 22.0534 248.849 22.2733 249.177 22.2942C250.71 22.399 250.827 22.8039 250.955 23.2227C250.993 23.4671 251.014 24.619 251.014 25.3834C250.975 25.7622 250.837 26.1237 250.613 26.4306C250.056 26.7245 249.442 26.8924 248.814 26.9227C247.827 26.9188 246.857 26.6539 246.003 26.1542C245.148 25.6546 244.437 24.9376 243.941 24.0744C243.308 22.9245 242.993 21.6235 243.03 20.3081C243.03 17.2504 244.915 14.1542 248.51 14.1542C250.023 14.1542 251.235 14.814 251.718 15.4248C252.047 15.8633 252.305 16.3509 252.485 16.8699C252.623 17.219 252.758 17.3865 252.906 17.3865C253.055 17.3865 253.231 17.1666 253.231 16.8699C253.213 16.3704 253.155 15.8731 253.058 15.3829C253.003 15.0548 252.955 14.7721 252.944 14.5766C252.944 14.2275 252.775 14.0251 252.651 14.0146C252.527 14.0042 252.375 13.9483 252.174 13.9064L251.881 13.8506L251.656 13.7982C250.602 13.5312 249.521 13.3894 248.434 13.3759C246.517 13.3497 244.654 14.0212 243.185 15.2677C242.44 15.9276 241.847 16.7433 241.445 17.6583C241.044 18.5733 240.845 19.5657 240.861 20.5664C240.849 21.5286 241.03 22.4832 241.394 23.3724C241.758 24.2616 242.297 25.0668 242.978 25.7394C244.314 26.9751 246.252 27.6523 248.434 27.6523C249.387 27.6379 250.335 27.5114 251.259 27.2753C251.746 27.1357 252.195 27.017 252.558 26.9262C252.782 26.8704 252.972 26.818 253.11 26.7796C253.352 26.7133 253.456 26.5492 253.456 26.4131C253.456 26.277 253.421 26.1967 253.079 26.0012C252.996 25.9366 252.929 25.8528 252.885 25.7569C252.841 25.6609 252.819 25.5556 252.824 25.4497C252.801 24.5933 252.833 23.7363 252.92 22.8842L252.938 22.8388C253.007 22.6328 253.076 22.4408 253.628 22.2733C253.86 22.193 254.136 22.0569 254.136 21.8614C254.136 21.6659 253.894 21.5298 253.525 21.5298Z" fill="black"/>
<path d="M280.507 23.687C280.489 23.6639 280.467 23.6452 280.441 23.6324C280.415 23.6197 280.387 23.6133 280.358 23.6137C280.241 23.6137 280.154 23.7289 279.878 24.1861C279.472 25.0306 278.817 25.727 278.003 26.1792C277.331 26.5466 276.578 26.7374 275.813 26.7342C274.745 26.7115 273.704 26.3912 272.805 25.8085C271.905 25.2259 271.183 24.4036 270.716 23.4322C270.231 22.3625 269.995 21.1947 270.025 20.0184C270.025 16.6744 272.312 14.1542 275.34 14.1542C276.505 14.1181 277.646 14.4975 278.562 15.2259C278.968 15.6507 279.253 16.1792 279.384 16.7547C279.509 17.1422 279.64 17.3376 279.764 17.3376C279.801 17.3368 279.837 17.3283 279.87 17.3127C279.904 17.2971 279.933 17.2747 279.958 17.2469C280.099 17.0573 280.161 16.8191 280.13 16.5837C280.13 16.479 280.109 16.3463 280.092 16.1997C280.047 15.7145 279.985 15.1107 279.985 14.7756C279.985 14.2729 279.771 14.0775 279.64 14.0775C279.431 14.0505 279.223 14.012 279.018 13.9623C278.708 13.8611 278.392 13.7807 278.072 13.7214C277.281 13.5169 276.47 13.3998 275.655 13.3724C273.634 13.3179 271.662 14.0034 270.101 15.3026C268.756 16.5556 267.948 18.2894 267.848 20.1354C267.748 21.9815 268.364 23.7941 269.566 25.1879C270.322 26.1025 272.405 27.6313 275.392 27.6313C276.659 27.6341 277.919 27.435 279.125 27.0414C279.388 26.9134 279.613 26.7185 279.778 26.4759C280.157 25.8136 280.434 25.0968 280.6 24.3502C280.646 24.1249 280.613 23.8904 280.507 23.687Z" fill="black"/>
<path d="M291.323 13.2642C290.112 13.2941 288.94 13.704 287.97 14.437C287.293 14.9698 286.749 15.6543 286.38 16.4365C286.011 17.2186 285.827 18.0768 285.842 18.9433C285.823 20.3297 286.305 21.6754 287.199 22.7271C287.735 23.3352 288.394 23.8205 289.131 24.1504C289.867 24.4803 290.666 24.6472 291.471 24.6399C292.616 24.6376 293.735 24.2993 294.693 23.666C295.434 23.1027 296.031 22.3676 296.431 21.5225C296.832 20.6775 297.026 19.7474 296.997 18.8107C296.997 15.7075 294.507 13.2642 291.323 13.2642ZM291.841 23.9558C289.303 23.9558 287.531 21.1912 287.531 18.7199C287.531 16.5627 288.222 15.4353 288.778 14.8803C289.374 14.3166 290.151 13.9873 290.967 13.9518C291.835 13.9886 292.67 14.2972 293.357 14.8349C294.552 15.8262 295.294 17.5471 295.294 19.3273C295.294 21.2575 294.604 22.5909 293.934 23.2018C293.675 23.4706 293.056 23.9558 291.841 23.9558Z" fill="black"/>
<path d="M295.798 26.4166H287.327C287.193 26.4166 287.065 26.4703 286.97 26.5659C286.876 26.6614 286.823 26.7911 286.823 26.9262C286.823 27.0614 286.876 27.191 286.97 27.2866C287.065 27.3822 287.193 27.4358 287.327 27.4358H295.788C295.922 27.4358 296.05 27.3822 296.144 27.2866C296.239 27.191 296.292 27.0614 296.292 26.9262C296.292 26.7911 296.239 26.6614 296.144 26.5659C296.05 26.4703 295.922 26.4166 295.788 26.4166H295.798Z" fill="black"/>
<path d="M31.1929 22.3376C31.194 23.7336 30.9827 25.1215 30.5666 26.4527L30.9062 27.2956C30.9731 27.4611 31.0495 27.6227 31.1349 27.7793C32.5336 24.2554 32.5238 20.3203 31.1075 16.8036C29.6911 13.2869 26.979 10.4636 23.543 8.92899L24.0937 10.3143C26.2395 11.4853 28.0322 13.221 29.2819 15.3375C30.5317 17.4541 31.192 19.8728 31.1929 22.3376Z" fill="#212721"/>
<path d="M4.82266 26.6127C3.82373 23.5447 3.93213 20.2183 5.12862 17.2234C6.32512 14.2285 8.53238 11.7587 11.3589 10.2521L11.9026 8.89165C8.4137 10.416 5.65686 13.2646 4.22596 16.8238C2.79507 20.3829 2.80464 24.3677 4.2526 27.9198C4.36632 27.7207 4.46626 27.5139 4.55171 27.3009L4.82266 26.6127Z" fill="#212721"/>
<path d="M17.6682 36.0076C15.7496 36.009 13.8529 35.5961 12.1049 34.7966H10.0288C12.3215 36.2368 14.9671 37 17.6665 37C20.3659 37 23.0114 36.2368 25.3041 34.7966H23.2245C21.4786 35.5949 19.5844 36.0078 17.6682 36.0076Z" fill="#212721"/>
<path d="M30.6509 28.8694C30.4179 28.5398 30.2197 28.1863 30.0598 27.8149C30.0386 27.7651 30.014 27.7188 29.9947 27.6691L22.781 9.68301L22.2831 8.43818L19.7988 2.2407L18.9191 0H16.4559L13.3963 7.7962L13.1535 8.40617L12.6679 9.64033L5.46301 27.6619C5.4243 27.7597 5.38032 27.854 5.33633 27.9482C5.16945 28.3069 4.96727 28.6477 4.73285 28.9655C4.19623 29.69 3.49988 30.2781 2.69908 30.6832C1.89829 31.0882 1.0151 31.2989 0.119641 31.2986H0V33.7883H12.7013V31.2986H11.7424C11.3596 31.2986 10.9827 31.2027 10.6455 31.0195C10.3084 30.8363 10.0213 30.5715 9.8101 30.2488C9.59888 29.9261 9.47005 29.5555 9.43513 29.1702C9.40021 28.7849 9.46028 28.3968 9.60997 28.0407L10.8134 25.1723H20.2052L21.4368 28.0176C21.5912 28.3741 21.6552 28.7639 21.6231 29.1517C21.5911 29.5395 21.4639 29.9131 21.2531 30.2387C21.0423 30.5644 20.7546 30.8318 20.4159 31.0169C20.0772 31.2019 19.6982 31.2988 19.3132 31.2986H18.3174V33.7883H35.3363V31.2986C34.4205 31.2992 33.5178 31.0791 32.703 30.6566C31.8882 30.2342 31.1847 29.6215 30.6509 28.8694ZM11.9166 22.3625L15.5093 13.1917L19.1021 22.3625H11.9166Z" fill="#CE0E2D"/>
</svg>
