<svg width="243" height="109" viewBox="0 0 243 109" fill="none" xmlns="http://www.w3.org/2000/svg">
<path d="M66.1159 35.3194H66.0159C65.3159 33.7194 64.2159 32.4194 62.8159 31.5194C61.4159 30.5194 59.7159 30.1194 57.7159 30.1194C56.6159 30.1194 55.5159 30.3194 54.4159 30.8194C53.4159 31.3194 52.5159 31.9194 51.7159 32.8194C50.9159 33.7194 50.3159 34.7194 49.8159 35.9194C49.3159 37.1194 49.1159 38.4194 49.1159 39.9194C49.1159 41.4194 49.3159 42.7194 49.8159 43.9194C50.3159 45.1194 50.9159 46.1194 51.7159 47.0194C52.5159 47.9194 53.4159 48.5194 54.4159 49.0194C55.4159 49.5194 56.5159 49.7194 57.7159 49.7194C59.7159 49.7194 61.4159 49.4194 62.7159 48.7194C64.0159 48.1194 65.1159 47.1194 66.0159 45.7194L66.2159 45.8194L66.1159 47.8194C65.6159 48.3194 65.1159 48.8194 64.4159 49.2194C63.8159 49.6194 63.1159 49.9194 62.3159 50.2194C61.6159 50.5194 60.8159 50.7194 60.0159 50.8194C59.2159 50.9194 58.4159 51.0194 57.6159 51.0194C56.0159 51.0194 54.4159 50.7194 52.9159 50.2194C51.4159 49.7194 50.1159 48.9194 49.0159 48.0194C47.9159 47.0194 47.0159 45.9194 46.3159 44.5194C45.6159 43.1194 45.3159 41.6194 45.3159 39.9194C45.3159 38.2194 45.6159 36.7194 46.3159 35.3194C47.0159 33.9194 47.8159 32.8194 49.0159 31.8194C50.1159 30.8194 51.4159 30.1194 52.9159 29.6194C54.4159 29.1194 55.9159 28.8194 57.6159 28.8194C58.4159 28.8194 59.2159 28.9194 60.0159 29.0194C60.8159 29.1194 61.5159 29.3194 62.3159 29.6194C63.0159 29.9194 63.7159 30.2194 64.4159 30.6194C65.0159 31.0194 65.6159 31.4194 66.1159 32.0194V35.3194Z" fill="black"/>
<path d="M92.5159 50.4194C92.4159 50.4194 92.1159 50.4194 91.9159 50.3194C91.6159 50.3194 91.4159 50.3194 91.1159 50.3194C90.8159 50.3194 90.5159 50.3194 90.3159 50.3194C90.0159 50.3194 89.8159 50.3194 89.7159 50.3194C89.5159 50.3194 89.3159 50.3194 89.0159 50.3194C88.7159 50.3194 88.4159 50.3194 88.0159 50.3194C87.7159 50.3194 87.3159 50.3194 87.0159 50.3194C86.7159 50.3194 86.5159 50.3194 86.3159 50.4194V50.3194C86.4159 50.3194 86.5159 50.2194 86.7159 50.1194C86.8159 50.0194 87.0159 50.0194 87.1159 49.8194C87.2159 49.7194 87.3159 49.6194 87.3159 49.4194C87.3159 49.3194 87.3159 49.1194 87.2159 48.8194C86.9159 48.1194 86.6159 47.3194 86.2159 46.6194C85.8159 45.9194 85.4159 44.9194 84.8159 43.8194H75.4159C75.2159 44.4194 75.0159 44.9194 74.8159 45.3194C74.6159 45.8194 74.4159 46.2194 74.3159 46.6194C74.1159 47.0194 74.0159 47.4194 73.9159 47.7194C73.8159 48.0194 73.6159 48.4194 73.5159 48.8194C73.4159 49.0194 73.4159 49.2194 73.4159 49.4194C73.4159 49.5194 73.5159 49.7194 73.6159 49.8194C73.7159 49.9194 73.8159 50.0194 74.0159 50.1194C74.1159 50.2194 74.3159 50.2194 74.4159 50.3194V50.4194C74.1159 50.4194 73.8159 50.3194 73.4159 50.3194C73.0159 50.3194 72.6159 50.3194 72.3159 50.3194C72.0159 50.3194 71.7159 50.3194 71.3159 50.3194C70.9159 50.3194 70.6159 50.4194 70.3159 50.4194V50.3194C71.0159 50.1194 71.6159 49.5194 72.0159 48.7194C72.3159 48.2194 72.5159 47.7194 72.8159 47.2194C73.1159 46.7194 73.3159 46.1194 73.7159 45.5194C74.0159 44.9194 74.4159 44.1194 74.8159 43.3194C75.2159 42.5194 75.7159 41.4194 76.3159 40.2194C76.9159 39.0194 77.4159 37.8194 78.0159 36.7194C78.5159 35.6194 79.0159 34.6194 79.4159 33.6194C79.8159 32.6194 80.2159 31.8194 80.6159 31.0194C80.9159 30.2194 81.2159 29.6194 81.4159 29.1194H81.8159C82.0159 29.6194 82.3159 30.2194 82.6159 31.0194C82.9159 31.8194 83.3159 32.6194 83.8159 33.6194C84.2159 34.6194 84.7159 35.6194 85.2159 36.7194C85.7159 37.8194 86.3159 39.0194 86.8159 40.2194C87.4159 41.4194 87.9159 42.4194 88.3159 43.2194C88.7159 44.0194 89.0159 44.7194 89.3159 45.3194C89.6159 45.9194 89.9159 46.4194 90.1159 46.9194C90.3159 47.4194 90.6159 47.9194 90.8159 48.4194C91.0159 48.9194 91.3159 49.3194 91.7159 49.6194C92.1159 49.9194 92.4159 50.2194 92.7159 50.3194L92.5159 50.4194ZM84.3159 42.8194L83.1159 40.1194C82.5159 38.9194 82.1159 38.0194 81.8159 37.3194C81.5159 36.7194 81.3159 36.1194 81.1159 35.7194C80.9159 35.3194 80.8159 34.9194 80.6159 34.6194C80.5159 34.3194 80.3159 33.9194 80.0159 33.3194C79.7159 33.8194 79.5159 34.3194 79.4159 34.7194C79.2159 35.1194 79.0159 35.5194 78.8159 36.0194C78.6159 36.5194 78.4159 37.0194 78.1159 37.7194C77.8159 38.3194 77.5159 39.2194 77.0159 40.2194L75.8159 42.8194H84.3159Z" fill="black"/>
<path d="M112.716 47.3194C112.716 47.4194 112.616 47.6194 112.416 47.9194C112.316 48.2194 112.116 48.5194 112.016 48.8194C111.816 49.1194 111.716 49.4194 111.616 49.7194C111.516 50.0194 111.416 50.2194 111.416 50.3194H99.616C99.516 50.3194 99.316 50.3194 99.016 50.3194C98.816 50.3194 98.516 50.3194 98.216 50.3194C97.916 50.3194 97.716 50.3194 97.416 50.3194C97.216 50.3194 97.016 50.3194 96.916 50.4194V50.3194C97.116 50.2194 97.316 50.1194 97.516 49.9194C97.716 49.7194 97.816 49.4194 97.916 48.9194C97.916 48.4194 97.916 47.9194 97.916 47.3194C97.916 46.7194 97.916 46.1194 97.916 45.4194C97.916 44.7194 97.916 43.9194 97.916 43.0194C97.916 42.1194 97.916 41.0194 97.916 39.8194C97.916 38.6194 97.916 37.5194 97.916 36.6194C97.916 35.7194 97.916 34.9194 97.916 34.2194C97.916 33.5194 97.916 32.9194 97.916 32.3194C97.916 31.8194 97.916 31.2194 97.916 30.7194C97.916 30.2194 97.816 29.9194 97.516 29.7194C97.316 29.5194 97.116 29.4194 96.916 29.3194V29.2194C97.016 29.2194 97.216 29.3194 97.516 29.3194C97.716 29.3194 98.016 29.3194 98.316 29.3194C98.616 29.3194 98.816 29.3194 99.116 29.3194C99.416 29.3194 99.516 29.3194 99.716 29.3194C99.816 29.3194 100.016 29.3194 100.316 29.3194C100.516 29.3194 100.816 29.3194 101.116 29.3194C101.416 29.3194 101.616 29.3194 101.916 29.3194C102.116 29.3194 102.316 29.3194 102.416 29.2194V29.3194C102.216 29.4194 101.916 29.5194 101.716 29.7194C101.516 29.9194 101.416 30.2194 101.416 30.7194C101.416 31.2194 101.416 31.7194 101.416 32.3194C101.416 32.8194 101.416 33.5194 101.416 34.2194C101.416 34.9194 101.416 35.7194 101.416 36.6194C101.416 37.5194 101.416 38.6194 101.416 39.8194C101.416 41.0194 101.416 42.1194 101.416 43.1194C101.416 44.0194 101.416 44.9194 101.416 45.6194C101.416 46.3194 101.416 47.0194 101.416 47.6194C101.416 48.2194 101.416 48.7194 101.416 49.3194C102.516 49.3194 103.516 49.3194 104.616 49.3194C105.616 49.3194 106.716 49.2194 107.616 49.0194C108.616 48.9194 109.516 48.6194 110.316 48.3194C111.116 48.0194 111.916 47.6194 112.516 47.2194L112.716 47.3194Z" fill="black"/>
<path d="M140.116 29.4194C139.916 29.5194 139.616 29.6194 139.416 29.8194C139.216 30.0194 139.116 30.3194 139.116 30.8194C139.116 31.3194 139.116 31.8194 139.016 32.4194C139.016 32.9194 139.016 33.6194 138.916 34.3194C138.916 35.0194 138.916 35.8194 138.916 36.7194C138.916 37.6194 138.916 38.7194 138.916 39.9194C138.916 42.4194 138.916 44.6194 138.916 46.5194C138.916 48.4194 138.916 49.9194 138.916 51.0194H138.016C136.216 49.1194 134.716 47.5194 133.516 46.3194C132.316 45.0194 131.316 44.0194 130.616 43.2194C129.716 42.3194 129.016 41.6194 128.516 41.0194C128.016 40.5194 127.316 39.8194 126.616 39.0194C125.916 38.3194 125.116 37.4194 124.016 36.3194C123.016 35.2194 121.716 33.9194 120.316 32.3194C120.316 32.8194 120.316 33.3194 120.316 33.7194C120.316 34.1194 120.316 34.6194 120.316 35.1194C120.316 35.6194 120.316 36.3194 120.316 37.0194C120.316 37.8194 120.316 38.7194 120.316 39.9194C120.316 41.1194 120.316 42.2194 120.416 43.1194C120.416 44.0194 120.416 44.8194 120.516 45.5194C120.516 46.2194 120.616 46.8194 120.616 47.4194C120.616 48.0194 120.716 48.5194 120.716 49.0194C120.716 49.5194 120.816 49.8194 121.016 50.0194C121.216 50.2194 121.416 50.3194 121.616 50.4194V50.5194C121.416 50.5194 121.116 50.4194 120.716 50.4194C120.416 50.4194 120.116 50.4194 119.816 50.4194C119.516 50.4194 119.316 50.4194 118.916 50.4194C118.616 50.4194 118.316 50.5194 118.116 50.5194V50.4194C118.316 50.3194 118.516 50.2194 118.716 50.0194C118.916 49.8194 119.016 49.5194 119.016 49.0194C119.016 48.5194 119.016 48.0194 119.116 47.4194C119.116 46.8194 119.116 46.2194 119.216 45.5194C119.216 44.8194 119.216 44.0194 119.216 43.1194C119.216 42.2194 119.216 41.1194 119.216 39.9194C119.216 38.7194 119.216 37.6194 119.216 36.7194C119.216 35.8194 119.216 35.1194 119.216 34.4194C119.216 33.7194 119.216 33.2194 119.216 32.6194C119.216 32.1194 119.216 31.6194 119.216 31.1194C119.216 30.6194 119.016 30.3194 118.716 30.0194C118.416 29.7194 118.116 29.5194 117.916 29.4194V29.2194C118.016 29.2194 118.216 29.2194 118.316 29.3194C118.516 29.3194 118.716 29.3194 118.916 29.3194C119.116 29.3194 119.316 29.3194 119.516 29.3194C119.716 29.3194 119.916 29.3194 120.016 29.3194H121.916C123.216 30.7194 124.416 32.0194 125.416 33.2194C126.416 34.4194 127.316 35.3194 128.116 36.1194C128.916 37.0194 129.716 37.8194 130.416 38.5194C131.116 39.2194 131.816 39.9194 132.516 40.7194C133.216 41.4194 133.916 42.2194 134.816 43.1194C135.716 44.0194 136.616 45.0194 137.616 46.0194C137.616 45.6194 137.616 45.2194 137.616 44.8194C137.616 44.5194 137.616 44.1194 137.616 43.6194C137.616 43.2194 137.616 42.7194 137.616 42.1194C137.616 41.5194 137.616 40.7194 137.616 39.7194C137.616 38.5194 137.616 37.4194 137.516 36.5194C137.516 35.6194 137.416 34.8194 137.416 34.1194C137.416 33.4194 137.316 32.8194 137.316 32.2194C137.316 31.7194 137.216 31.1194 137.216 30.6194C137.216 30.1194 137.016 29.8194 136.816 29.6194C136.616 29.4194 136.416 29.3194 136.116 29.2194V29.0194C136.316 29.0194 136.616 29.1194 137.016 29.1194C137.416 29.1194 137.716 29.1194 137.916 29.1194C138.216 29.1194 138.516 29.1194 138.816 29.1194C139.216 29.1194 139.416 29.0194 139.716 29.0194L140.116 29.4194Z" fill="black"/>
<path d="M163.416 47.3194C163.416 47.4194 163.316 47.6194 163.116 47.9194C163.016 48.2194 162.816 48.5194 162.716 48.8194C162.516 49.1194 162.416 49.4194 162.316 49.7194C162.216 50.0194 162.116 50.2194 162.116 50.3194H150.416C150.316 50.3194 150.116 50.3194 149.816 50.3194C149.616 50.3194 149.316 50.3194 149.016 50.3194C148.716 50.3194 148.516 50.3194 148.216 50.3194C148.016 50.3194 147.816 50.3194 147.716 50.4194V50.3194C147.916 50.2194 148.116 50.1194 148.316 49.9194C148.516 49.7194 148.616 49.4194 148.716 48.9194C148.716 48.4194 148.716 47.9194 148.716 47.3194C148.716 46.7194 148.716 46.1194 148.716 45.4194C148.716 44.7194 148.716 43.9194 148.716 43.0194C148.716 42.1194 148.716 41.0194 148.716 39.8194C148.716 38.6194 148.716 37.5194 148.716 36.6194C148.716 35.7194 148.716 34.9194 148.716 34.2194C148.716 33.5194 148.716 32.9194 148.716 32.3194C148.716 31.8194 148.716 31.2194 148.716 30.7194C148.716 30.2194 148.616 29.9194 148.316 29.7194C148.116 29.5194 147.916 29.4194 147.716 29.3194V29.1194C147.816 29.1194 148.016 29.1194 148.216 29.2194C148.416 29.2194 148.716 29.2194 149.016 29.2194C149.316 29.2194 149.516 29.2194 149.816 29.2194C150.016 29.2194 150.216 29.2194 150.416 29.2194H161.016C161.016 29.3194 161.016 29.5194 161.116 29.8194C161.216 30.1194 161.316 30.4194 161.416 30.7194C161.516 31.0194 161.616 31.3194 161.716 31.6194C161.816 31.9194 161.916 32.1194 162.016 32.3194L161.816 32.5194C161.216 31.9194 160.516 31.5194 159.716 31.1194C159.016 30.8194 158.216 30.5194 157.416 30.4194C156.616 30.2194 155.716 30.2194 154.816 30.1194C153.916 30.1194 153.016 30.1194 152.016 30.2194C152.016 31.0194 152.016 31.7194 152.016 32.3194C152.016 32.9194 152.016 33.5194 152.016 34.1194C152.016 34.7194 152.016 35.4194 152.016 36.2194C152.016 36.9194 152.016 37.9194 152.016 38.9194C153.616 38.9194 154.816 38.8194 155.816 38.8194C156.716 38.7194 157.516 38.7194 158.016 38.5194C158.516 38.4194 158.916 38.2194 159.116 38.0194C159.316 37.8194 159.416 37.5194 159.516 37.2194L159.716 37.3194C159.716 37.7194 159.616 38.0194 159.616 38.3194C159.616 38.6194 159.616 39.0194 159.616 39.4194C159.616 39.8194 159.616 40.2194 159.616 40.5194C159.616 40.8194 159.716 41.1194 159.716 41.5194L159.516 41.6194C159.416 41.3194 159.316 41.0194 159.116 40.8194C158.916 40.6194 158.616 40.4194 158.016 40.3194C157.516 40.2194 156.816 40.1194 155.816 40.1194C154.916 40.1194 153.616 40.0194 152.016 40.0194V40.1194C152.016 41.3194 152.016 42.3194 152.016 43.3194C152.016 44.2194 152.016 45.0194 152.016 45.8194C152.016 46.5194 152.016 47.2194 152.016 47.7194C152.016 48.3194 152.016 48.8194 152.016 49.3194C153.116 49.3194 154.116 49.3194 155.216 49.3194C156.216 49.3194 157.316 49.2194 158.216 49.0194C159.216 48.9194 160.116 48.6194 160.916 48.3194C161.716 48.0194 162.516 47.6194 163.116 47.2194L163.416 47.3194Z" fill="black"/>
<path d="M186.516 32.6194C185.416 31.8194 184.216 31.2194 182.916 30.9194C181.616 30.6194 180.216 30.4194 179.016 30.4194V39.8194C179.016 41.1194 179.016 42.1194 179.016 43.0194C179.016 43.9194 179.016 44.7194 179.016 45.4194C179.016 46.1194 179.016 46.7194 179.016 47.3194C179.016 47.9194 179.016 48.4194 179.016 48.9194C179.016 49.4194 179.116 49.7194 179.316 49.9194C179.516 50.1194 179.716 50.2194 179.916 50.3194V50.4194C179.816 50.4194 179.616 50.4194 179.416 50.3194C179.216 50.3194 178.916 50.3194 178.616 50.3194C178.316 50.3194 178.116 50.3194 177.816 50.3194C177.616 50.3194 177.416 50.3194 177.216 50.3194C177.116 50.3194 176.916 50.3194 176.616 50.3194C176.316 50.3194 176.116 50.3194 175.816 50.3194C175.516 50.3194 175.316 50.3194 175.016 50.3194C174.816 50.3194 174.616 50.3194 174.516 50.4194V50.3194C174.716 50.2194 175.016 50.1194 175.216 49.9194C175.416 49.7194 175.516 49.4194 175.516 48.9194C175.516 48.4194 175.516 47.9194 175.516 47.3194C175.516 46.7194 175.516 46.1194 175.516 45.4194C175.516 44.7194 175.516 43.9194 175.516 43.0194C175.516 42.1194 175.516 41.0194 175.516 39.8194V30.4194C174.216 30.4194 172.916 30.6194 171.616 30.9194C170.216 31.2194 169.016 31.8194 167.916 32.6194L167.716 32.4194C167.716 32.3194 167.816 32.1194 167.916 31.7194C168.016 31.4194 168.116 31.1194 168.216 30.7194C168.316 30.4194 168.416 30.0194 168.516 29.8194C168.616 29.5194 168.616 29.3194 168.616 29.3194H185.416C185.416 29.4194 185.416 29.5194 185.516 29.8194C185.616 30.1194 185.716 30.4194 185.816 30.7194C185.916 31.0194 186.016 31.4194 186.116 31.7194C186.216 32.0194 186.316 32.2194 186.316 32.3194L186.516 32.6194Z" fill="black"/>
<path d="M198.016 50.4194C197.916 50.4194 197.716 50.4194 197.516 50.4194C197.316 50.4194 197.016 50.4194 196.716 50.4194C196.416 50.4194 196.216 50.4194 195.916 50.4194C195.716 50.4194 195.516 50.4194 195.316 50.4194C195.216 50.4194 195.016 50.4194 194.716 50.4194C194.416 50.4194 194.216 50.4194 193.916 50.4194C193.616 50.4194 193.416 50.4194 193.116 50.4194C192.916 50.4194 192.716 50.4194 192.516 50.5194V50.4194C192.716 50.3194 192.916 50.2194 193.116 50.0194C193.316 49.8194 193.416 49.5194 193.416 49.0194C193.416 48.5194 193.416 48.0194 193.416 47.4194C193.416 46.8194 193.416 46.2194 193.416 45.5194C193.416 44.8194 193.416 44.0194 193.416 43.1194C193.416 42.2194 193.416 41.1194 193.416 39.9194C193.416 38.7194 193.416 37.6194 193.416 36.7194C193.416 35.8194 193.416 35.0194 193.416 34.3194C193.416 33.6194 193.416 33.0194 193.416 32.4194C193.416 31.9194 193.416 31.3194 193.416 30.8194C193.416 30.3194 193.316 30.0194 193.116 29.8194C192.916 29.6194 192.716 29.5194 192.516 29.4194V29.3194C192.616 29.3194 192.816 29.4194 193.116 29.4194C193.316 29.4194 193.616 29.4194 193.916 29.4194C194.216 29.4194 194.416 29.4194 194.716 29.4194C195.016 29.4194 195.116 29.4194 195.316 29.4194C195.416 29.4194 195.616 29.4194 195.916 29.4194C196.116 29.4194 196.416 29.4194 196.716 29.4194C197.016 29.4194 197.216 29.4194 197.516 29.4194C197.716 29.4194 197.916 29.4194 198.016 29.3194V29.4194C197.816 29.5194 197.516 29.6194 197.316 29.8194C197.116 30.0194 197.016 30.3194 197.016 30.8194C197.016 31.3194 197.016 31.8194 197.016 32.4194C197.016 32.9194 197.016 33.6194 197.016 34.3194C197.016 35.0194 197.016 35.8194 197.016 36.7194C197.016 37.6194 197.016 38.7194 197.016 39.9194C197.016 41.1194 197.016 42.2194 197.016 43.1194C197.016 44.0194 197.016 44.8194 197.016 45.5194C197.016 46.2194 197.016 46.8194 197.016 47.4194C197.016 48.0194 197.016 48.5194 197.016 49.0194C197.016 49.5194 197.116 49.8194 197.316 50.0194C197.516 50.2194 197.716 50.3194 198.016 50.4194Z" fill="black"/>
<path d="M223.716 50.4194C223.616 50.4194 223.316 50.4194 223.116 50.3194C222.816 50.3194 222.516 50.3194 222.216 50.3194C221.916 50.3194 221.616 50.3194 221.316 50.3194C221.016 50.3194 220.816 50.3194 220.616 50.3194C220.416 50.3194 220.216 50.3194 219.916 50.3194C219.616 50.3194 219.216 50.3194 218.916 50.3194C218.616 50.3194 218.216 50.3194 217.916 50.3194C217.616 50.3194 217.416 50.3194 217.216 50.4194V50.3194C217.316 50.3194 217.416 50.2194 217.616 50.2194C217.716 50.1194 217.916 50.1194 218.016 50.0194C218.116 49.9194 218.216 49.8194 218.216 49.7194C218.216 49.6194 218.216 49.4194 218.116 49.2194C217.816 48.7194 217.516 48.3194 217.316 47.9194C217.116 47.5194 216.816 47.1194 216.516 46.6194C216.216 46.1194 215.916 45.6194 215.516 45.1194C215.116 44.5194 214.716 43.9194 214.116 43.1194L213.116 41.7194L212.816 41.2194L211.416 43.1194L210.316 44.7194C210.016 45.1194 209.816 45.4194 209.616 45.8194C209.416 46.1194 209.116 46.5194 208.916 46.8194C208.716 47.1194 208.416 47.5194 208.216 47.9194C208.016 48.3194 207.716 48.7194 207.416 49.2194C207.316 49.4194 207.216 49.6194 207.216 49.7194C207.216 49.8194 207.316 50.0194 207.416 50.1194C207.516 50.2194 207.616 50.3194 207.816 50.4194C207.916 50.5194 208.116 50.5194 208.216 50.6194V50.7194C207.916 50.7194 207.616 50.6194 207.216 50.6194C206.816 50.6194 206.516 50.6194 206.216 50.6194C205.916 50.6194 205.516 50.6194 205.116 50.6194C204.716 50.6194 204.316 50.7194 204.016 50.7194V50.6194C204.316 50.5194 204.616 50.3194 205.016 50.0194C205.316 49.7194 205.716 49.3194 206.016 48.9194C206.416 48.4194 206.716 48.0194 207.016 47.7194C207.316 47.4194 207.616 47.0194 207.816 46.6194C208.116 46.2194 208.416 45.7194 208.816 45.2194C209.216 44.7194 209.716 44.0194 210.216 43.2194L212.216 40.4194C211.916 40.0194 211.616 39.5194 211.216 39.0194C210.816 38.5194 210.416 37.9194 209.916 37.2194C209.316 36.4194 208.916 35.7194 208.516 35.2194C208.116 34.6194 207.816 34.1194 207.516 33.7194C207.216 33.3194 207.016 32.9194 206.816 32.6194C206.616 32.3194 206.416 32.0194 206.116 31.7194C205.816 31.3194 205.516 30.9194 205.116 30.5194C204.716 30.1194 204.416 29.9194 204.116 29.8194L204.216 29.6194C204.316 29.6194 204.616 29.6194 204.916 29.7194C205.216 29.7194 205.516 29.7194 205.816 29.7194C206.116 29.7194 206.416 29.7194 206.716 29.7194C207.016 29.7194 207.216 29.7194 207.416 29.7194C207.516 29.7194 207.816 29.7194 208.116 29.7194C208.416 29.7194 208.716 29.7194 209.116 29.7194C209.416 29.7194 209.716 29.7194 210.016 29.7194C210.316 29.7194 210.516 29.7194 210.616 29.6194V29.8194C210.516 29.8194 210.416 29.9194 210.216 29.9194C210.116 30.0194 209.916 30.0194 209.816 30.1194C209.716 30.2194 209.616 30.3194 209.616 30.4194C209.616 30.5194 209.616 30.7194 209.816 30.9194C210.116 31.4194 210.316 31.8194 210.616 32.3194C210.916 32.7194 211.116 33.1194 211.416 33.6194C211.716 34.0194 212.016 34.5194 212.416 35.1194C212.816 35.7194 213.216 36.3194 213.816 37.2194L214.116 37.7194L214.516 37.2194C215.016 36.5194 215.416 36.0194 215.716 35.5194C216.016 35.0194 216.316 34.6194 216.616 34.1194C216.916 33.7194 217.216 33.2194 217.516 32.8194C217.816 32.3194 218.216 31.8194 218.616 31.1194C218.716 30.9194 218.816 30.7194 218.816 30.6194C218.816 30.5194 218.716 30.3194 218.616 30.2194C218.516 30.1194 218.416 30.0194 218.216 29.9194C218.116 29.8194 217.916 29.8194 217.816 29.7194V29.5194C218.116 29.5194 218.416 29.6194 218.816 29.6194C219.216 29.6194 219.516 29.6194 219.816 29.6194C220.116 29.6194 220.516 29.6194 220.916 29.6194C221.316 29.6194 221.716 29.5194 222.016 29.5194V29.7194C221.716 29.8194 221.316 30.0194 221.016 30.3194C220.716 30.6194 220.316 31.0194 220.016 31.4194C219.616 31.9194 219.316 32.3194 219.016 32.6194C218.716 32.9194 218.416 33.3194 218.216 33.7194C217.916 34.1194 217.616 34.6194 217.216 35.1194C216.816 35.6194 216.316 36.3194 215.716 37.1194C215.516 37.3194 215.416 37.5194 215.216 37.7194C215.016 37.9194 214.916 38.2194 214.716 38.5194L215.216 39.2194C215.516 39.7194 215.916 40.2194 216.316 40.8194C216.716 41.4194 217.316 42.2194 217.916 43.1194C218.516 43.9194 218.916 44.6194 219.316 45.1194C219.716 45.7194 220.016 46.1194 220.316 46.5194C220.616 46.9194 220.816 47.3194 221.016 47.6194C221.216 47.9194 221.416 48.2194 221.616 48.5194C221.916 48.9194 222.216 49.3194 222.616 49.7194C223.016 50.1194 223.316 50.3194 223.616 50.4194H223.716Z" fill="black"/>
<path d="M91.0162 60.6194H86.7162V66.8194H85.4162V60.6194H81.1162V59.3194H91.0162V60.6194Z" fill="#BA8748"/>
<path d="M103.716 66.8194H95.8164C95.2164 66.8194 94.8164 66.6194 94.4164 66.2194C94.0164 65.8194 93.8164 65.3194 93.8164 64.8194V61.4194C93.8164 60.8194 94.0164 60.4194 94.4164 60.0194C94.8164 59.6194 95.3164 59.4194 95.8164 59.4194H103.716V60.7194H95.1164V62.5194H103.716V63.8194H95.1164V65.6194H103.716V66.8194Z" fill="#BA8748"/>
<path d="M116.816 66.8194H108.916C108.316 66.8194 107.916 66.6194 107.516 66.2194C107.116 65.8194 106.916 65.3194 106.916 64.8194V61.4194C106.916 60.8194 107.116 60.4194 107.516 60.0194C107.916 59.6194 108.416 59.4194 108.916 59.4194H116.816V60.7194H108.216V65.6194H116.816V66.8194Z" fill="#BA8748"/>
<path d="M129.916 66.8194H128.616V63.7194H121.316V66.8194H120.016V59.3194H121.316V62.4194H128.616V59.3194H129.916V66.8194Z" fill="#BA8748"/>
<path d="M143.116 59.3194V65.5194C143.116 65.9194 143.016 66.3194 142.716 66.5194C142.416 66.8194 142.116 66.9194 141.716 66.9194C141.316 66.9194 140.916 66.8194 140.716 66.5194L134.516 60.2194V66.8194H133.216V60.6194C133.216 60.2194 133.316 59.8194 133.616 59.6194C133.916 59.3194 134.216 59.2194 134.616 59.2194C135.016 59.2194 135.416 59.3194 135.616 59.6194L141.816 65.9194V59.3194H143.116Z" fill="#BA8748"/>
<path d="M156.216 64.7194C156.216 65.3194 156.016 65.7194 155.616 66.1194C155.216 66.5194 154.716 66.7194 154.216 66.7194H148.416C147.816 66.7194 147.416 66.5194 147.016 66.1194C146.616 65.7194 146.416 65.2194 146.416 64.7194V61.3194C146.416 60.7194 146.616 60.3194 147.016 59.9194C147.416 59.5194 147.916 59.3194 148.416 59.3194H154.216C154.816 59.3194 155.216 59.5194 155.616 59.9194C156.016 60.3194 156.216 60.8194 156.216 61.3194V64.7194ZM154.816 65.5194V60.6194H147.516V65.5194H154.816Z" fill="#BA8748"/>
<path d="M167.316 66.8194H161.416C160.816 66.8194 160.416 66.6194 160.016 66.2194C159.616 65.8194 159.416 65.3194 159.416 64.8194V59.3194H160.716V65.5194H167.416V66.8194H167.316Z" fill="#BA8748"/>
<path d="M180.016 64.7194C180.016 65.3194 179.816 65.7194 179.416 66.1194C179.016 66.5194 178.516 66.7194 178.016 66.7194H172.216C171.616 66.7194 171.216 66.5194 170.816 66.1194C170.416 65.7194 170.216 65.2194 170.216 64.7194V61.3194C170.216 60.7194 170.416 60.3194 170.816 59.9194C171.216 59.5194 171.716 59.3194 172.216 59.3194H178.016C178.616 59.3194 179.016 59.5194 179.416 59.9194C179.816 60.3194 180.016 60.8194 180.016 61.3194V64.7194ZM178.716 65.5194V60.6194H171.416V65.5194H178.716Z" fill="#BA8748"/>
<path d="M193.116 64.7194C193.116 65.3194 192.916 65.7194 192.516 66.1194C192.116 66.5194 191.616 66.7194 191.116 66.7194H185.316C184.716 66.7194 184.316 66.5194 183.916 66.1194C183.516 65.7194 183.316 65.2194 183.316 64.7194V61.3194C183.316 60.7194 183.516 60.3194 183.916 59.9194C184.316 59.5194 184.816 59.3194 185.316 59.3194H193.216V60.6194H184.616V65.5194H191.916V63.7194H188.116V62.4194H193.216V64.7194H193.116Z" fill="#BA8748"/>
<path d="M197.616 66.8194H196.316V59.3194H197.616V66.8194Z" fill="#BA8748"/>
<path d="M210.616 66.8194H202.716C202.116 66.8194 201.716 66.6194 201.316 66.2194C200.916 65.8194 200.716 65.3194 200.716 64.8194V61.4194C200.716 60.8194 200.916 60.4194 201.316 60.0194C201.716 59.6194 202.216 59.4194 202.716 59.4194H210.616V60.7194H202.016V62.5194H210.616V63.8194H202.016V65.6194H210.616V66.8194Z" fill="#BA8748"/>
<path d="M223.716 64.7194C223.716 65.3194 223.516 65.7194 223.116 66.1194C222.716 66.5194 222.216 66.7194 221.716 66.7194H213.816V65.4194H222.416V63.6194H215.516C214.916 63.6194 214.416 63.4194 214.016 63.0194C213.616 62.6194 213.416 62.1194 213.416 61.6194V61.3194C213.416 60.7194 213.616 60.3194 214.016 59.9194C214.416 59.5194 214.916 59.3194 215.516 59.3194H223.416V60.6194H214.816V62.4194H221.716C222.316 62.4194 222.716 62.6194 223.116 63.0194C223.516 63.4194 223.716 63.9194 223.716 64.4194V64.7194Z" fill="#BA8748"/>
<path d="M149.816 107.419C207.816 102.519 245.816 79.5194 242.216 53.7194C242.216 76.4194 207.216 96.3194 155.016 100.719C94.0159 105.919 32.6159 88.0194 18.0159 60.7194C3.41589 33.4194 41.0159 7.11943 102.016 1.91943C120.416 0.319433 138.816 0.919433 155.916 3.11943C136.116 0.019433 114.316 -0.880567 92.7159 0.919433C27.6159 6.51943 -12.2841 34.8194 3.41589 64.2194C19.2159 93.6194 84.7159 112.919 149.816 107.419Z" fill="url(#paint0_radial_231_3581)"/>
<path d="M153.216 104.719C209.016 99.9194 245.616 77.6194 242.216 52.6194C242.216 74.6194 208.516 93.9194 158.216 98.1194C99.4158 103.119 40.3158 85.7194 26.2158 59.3194C12.1158 32.8194 48.3158 7.31941 107.116 2.31941C124.816 0.819411 142.516 1.31941 159.016 3.51941C139.816 0.519411 118.916 -0.380589 98.0158 1.31941C35.5158 6.81941 -2.98421 34.3194 12.2158 62.8194C27.4158 91.3194 90.5158 110.119 153.216 104.719Z" fill="url(#paint1_radial_231_3581)"/>
<defs>
<radialGradient id="paint0_radial_231_3581" cx="0" cy="0" r="1" gradientUnits="userSpaceOnUse" gradientTransform="translate(12.6869 27.2012) rotate(175.141) scale(129.634 95.2832)">
<stop stop-color="white"/>
<stop offset="1" stop-color="#BA8748"/>
</radialGradient>
<radialGradient id="paint1_radial_231_3581" cx="0" cy="0" r="1" gradientUnits="userSpaceOnUse" gradientTransform="translate(136.61 104.535) rotate(175.123) scale(139.04 102.894)">
<stop stop-color="white"/>
<stop offset="1" stop-color="#BA8748"/>
</radialGradient>
</defs>
</svg>
