<svg width="160" height="82" viewBox="0 0 160 82" fill="none" xmlns="http://www.w3.org/2000/svg">
<path d="M33.8053 81.6589C40.8934 57.3203 61.6442 38.7962 87.203 34.9816C90.3964 34.505 93.6649 34.258 96.9912 34.258C99.979 34.258 102.919 34.4578 105.798 34.8446C107.158 35.0273 108.505 35.2517 109.836 35.5164C122.324 37.9987 133.52 44.0295 142.375 52.4963C142.375 52.4963 142.375 52.4964 142.375 52.4963L142.788 52.0839L142.788 52.0833L159.32 21.8331C142.242 8.18102 120.563 3.63131e-06 96.9912 0C51.481 -4.08522e-06 13.0769 30.3657 0.930176 71.9458L33.8053 81.6589Z" fill="#5BBDEB"/>
</svg>
