<svg width="146" height="149" viewBox="0 0 146 149" fill="none" xmlns="http://www.w3.org/2000/svg">
<path d="M34.3086 46.3773C34.5222 40.8973 35.4051 35.5886 36.878 30.531L4.00292 20.8179C1.62557 28.956 0.25405 37.5236 0.0319355 46.3773C0.0106034 47.2276 0 48.0805 0 48.936C-2.36035e-05 104.209 44.791 149 100.064 149C100.567 149 101.07 148.996 101.571 148.989C111.805 148.838 121.665 147.152 130.933 144.15C129.909 144.482 128.876 144.798 127.837 145.097L118.156 112.33C112.87 113.836 107.312 114.699 101.571 114.828C101.07 114.839 100.568 114.844 100.064 114.844C63.6585 114.844 34.258 85.3415 34.258 48.9871C34.258 48.113 34.2749 47.2431 34.3086 46.3773Z" fill="#E55136"/>
<path d="M145.571 1.4861C145.53 1.44679 145.489 1.40751 145.448 1.3683L145.861 0.955566L145.571 1.4861Z" fill="#E55136"/>
</svg>
