<svg width="268" height="24" viewBox="0 0 268 24" fill="none" xmlns="http://www.w3.org/2000/svg">
<g clip-path="url(#clip0_231_3582)">
<path d="M10.7873 4.13996C9.96012 4.10255 9.13677 4.2749 8.3918 4.64142C7.64683 5.00794 7.00375 5.55706 6.52076 6.23908C5.42671 7.97384 4.89957 10.0141 5.01424 12.07C5.01424 17.2712 6.93093 19.8717 10.7643 19.8717C12.7794 19.7986 14.7689 19.3888 16.6524 18.6589V22.7989C14.6409 23.6081 12.491 24.0045 10.3273 23.965C8.90294 24.0573 7.47611 23.828 6.14969 23.2936C4.82326 22.7592 3.63027 21.933 2.6567 20.8747C0.885674 18.8455 0.000160588 15.9067 0.000160588 12.0583C-0.0447052 9.86 0.399467 7.67967 1.29968 5.67932C2.10822 3.93119 3.41909 2.47181 5.06024 1.49273C6.79856 0.473009 8.77955 -0.043317 10.7873 1.73658e-05C13.1236 0.0254505 15.4238 0.587645 17.5149 1.64433L15.9394 5.69098C15.0884 5.28282 14.2144 4.9213 13.3519 4.60643C12.5284 4.30809 11.6617 4.15046 10.7873 4.13996V4.13996Z" fill="#58A6DB"/>
<path d="M42.4011 11.9883C42.4011 15.8756 41.458 18.8416 39.572 20.8863C37.686 22.931 35.0026 23.9689 31.5219 24C27.9875 24 25.2811 22.9621 23.4028 20.8863C21.5244 18.8105 20.5814 15.8328 20.5737 11.9534C20.5737 8.06608 21.5206 5.10398 23.4143 3.06706C25.308 1.03013 27.999 0.00777454 31.4874 0C35.0294 0 37.732 1.03013 39.595 3.09038C41.458 5.15063 42.3934 8.11662 42.4011 11.9883ZM25.6338 11.9883C25.49 14.059 26.0016 16.1222 27.0943 17.8776C27.6105 18.5394 28.2787 19.0629 29.0405 19.4024C29.8023 19.7419 30.6345 19.887 31.4644 19.8251C35.3515 19.8251 37.295 17.2051 37.295 11.965C37.295 6.72498 35.3591 4.10884 31.4874 4.11662C30.6531 4.06084 29.818 4.21224 29.0545 4.55771C28.291 4.90317 27.6221 5.43227 27.1058 6.09913C26.0031 7.85045 25.4868 9.91579 25.6338 11.9883V11.9883Z" fill="#58A6DB"/>
<path d="M66.2412 11.8017C66.2412 15.6424 65.164 18.5811 63.0096 20.6181C60.8591 22.6589 57.7425 23.6735 53.683 23.6735H47.1509V0.361511H54.3615C58.1105 0.361511 61.0316 1.37609 63.1016 3.38192C64.1774 4.48399 65.0129 5.80303 65.5537 7.25352C66.0946 8.70401 66.3288 10.2536 66.2412 11.8017ZM61.1811 11.93C61.1811 6.91545 58.9999 4.41205 54.6375 4.41982H52.0385V19.5802H54.1315C58.8389 19.5879 61.1888 17.0379 61.1811 11.93V11.93Z" fill="#58A6DB"/>
<path d="M91.8635 11.9883C91.8635 15.8756 90.9205 18.8416 89.0345 20.8863C87.1484 22.931 84.4651 23.9689 80.9843 24C77.4653 24 74.7589 22.9621 72.8652 20.8863C70.9715 18.8105 70.0285 15.8328 70.0362 11.9534C70.0362 8.08163 70.9907 5.11953 72.8767 3.06706C74.7627 1.01458 77.4193 0 80.9613 0C84.5034 0 87.1944 1.02624 89.0115 3.09038C90.8285 5.15452 91.8635 8.16326 91.8635 11.9883ZM75.0963 11.9883C74.9524 14.059 75.4641 16.1222 76.5568 17.8776C77.0736 18.5386 77.7419 19.0616 78.5036 19.401C79.2652 19.7405 80.0971 19.886 80.9268 19.8251C84.8139 19.8251 86.7574 17.2051 86.7574 11.965C86.7574 6.72498 84.8407 4.10107 81.0073 4.09329C80.1712 4.03557 79.3338 4.18603 78.5681 4.53157C77.8024 4.87711 77.1317 5.40724 76.6143 6.0758C75.4959 7.83047 74.9637 9.90339 75.0963 11.9883V11.9883Z" fill="#58A6DB"/>
<path d="M117.026 23.6735H110.827L100.834 6.04081H100.684C100.891 9.15451 100.983 11.3819 100.983 12.7114V23.6735H96.6016V0.361511H102.743L112.725 17.8542H112.84C112.679 14.8222 112.61 12.6764 112.61 11.4286V0.361511H116.991L117.026 23.6735Z" fill="#58A6DB"/>
<path d="M123.178 23.6735V0.361511H124.777V22.1574H135.702V23.6735H123.178Z" fill="#231F20"/>
<path d="M152.262 23.6735H139.692V0.361511H152.262V1.86588H141.302V10.6822H151.653V12.1866H141.302V22.1574H152.262V23.6735Z" fill="#231F20"/>
<path d="M168.535 15.4519H159.197L155.988 23.6735H154.206L163.406 0.26825H164.452L173.537 23.6735H171.72L168.535 15.4519ZM159.772 13.9942H167.994L164.866 5.5977C164.613 4.93297 164.291 4.02335 163.923 2.84551C163.672 3.78873 163.365 4.71561 163.003 5.62102L159.772 13.9942Z" fill="#231F20"/>
<path d="M178.391 13.516V23.6735H176.792V0.361511H182.255C185.107 0.361511 187.223 0.897955 188.58 1.97084C189.278 2.54769 189.828 3.28663 190.184 4.12504C190.541 4.96346 190.692 5.87663 190.627 6.78717C190.668 8.20614 190.239 9.59816 189.408 10.7405C188.463 11.9132 187.16 12.7337 185.705 13.0729L191.949 23.6851H190.029L184.095 13.5277L178.391 13.516ZM178.391 12.1166H182.784C184.391 12.215 185.983 11.7497 187.292 10.7988C187.84 10.3238 188.27 9.72486 188.547 9.05031C188.825 8.37576 188.942 7.64448 188.89 6.91545C188.954 6.19027 188.845 5.46012 188.573 4.78638C188.301 4.11265 187.873 3.51502 187.326 3.04373C185.778 2.12258 183.985 1.71486 182.197 1.87755H178.391V12.1166Z" fill="#231F20"/>
<path d="M212.638 23.6735H211.016L197.4 2.98542H197.274C197.4 5.44606 197.469 7.31195 197.469 8.55976V23.7201H195.928V0.361511H197.527L211.131 20.9912H211.223C211.131 19.0787 211.074 17.2595 211.074 15.5452V0.361511H212.638V23.6735Z" fill="#231F20"/>
<path d="M219.147 23.6735V0.361511H220.803V23.6851L219.147 23.6735Z" fill="#231F20"/>
<path d="M243.976 23.6735H242.355L228.738 2.98542H228.612C228.738 5.44606 228.796 7.31195 228.796 8.55976V23.7201H227.255V0.361511H228.853L242.458 20.9912H242.562C242.458 19.0787 242.412 17.2595 242.412 15.5452V0.361511H243.976V23.6735Z" fill="#231F20"/>
<path d="M259.524 11.93H267.954V22.5656C265.576 23.5512 263.025 24.0391 260.456 24C256.822 24 254.039 22.9582 252.107 20.8746C250.175 18.7911 249.209 15.8523 249.209 12.0583C249.185 9.86231 249.699 7.69462 250.704 5.74927C251.631 3.952 253.064 2.47456 254.821 1.50438C256.711 0.477521 258.829 -0.0404461 260.973 2.49842e-06C263.294 -0.0376237 265.594 0.440019 267.713 1.39942L267.069 2.86881C265.128 1.94732 263.012 1.46958 260.87 1.46939C259.54 1.4013 258.211 1.61967 256.97 2.11012C255.729 2.60057 254.605 3.35198 253.671 4.31487C251.817 6.41497 250.858 9.17358 251.003 11.9883C251.003 15.4947 251.846 18.1341 253.533 19.9067C255.223 21.6793 257.696 22.5656 260.973 22.5656C262.812 22.6139 264.643 22.3052 266.367 21.656V13.4927H259.467L259.524 11.93Z" fill="#231F20"/>
</g>
<defs>
<clipPath id="clip0_231_3582">
<rect width="268" height="24" fill="white"/>
</clipPath>
</defs>
</svg>
