<svg xmlns="http://www.w3.org/2000/svg" xmlns:xlink="http://www.w3.org/1999/xlink" viewBox="0 0 942 942"><defs><style>.cls-1{fill:url(#radial-gradient);}.cls-2,.cls-7,.cls-8{fill:none;stroke:#231f20;stroke-linejoin:round;}.cls-2,.cls-7{stroke-linecap:round;}.cls-2,.cls-8{stroke-width:26px;}.cls-3{fill:#231f20;}.cls-4{fill:#85f1f9;}.cls-5,.cls-9{stroke:#000;stroke-miterlimit:10;}.cls-5{stroke-width:4px;}.cls-6{fill:#9f0;}.cls-7{stroke-width:20px;}.cls-9{fill:#ff7e0a;stroke-width:7px;}.cls-10{font-size:55.24px;font-family:LayijiMaHaNiYomV1.5OT, "Layiji MaHaNiYom V1.5 OT";}</style><radialGradient id="radial-gradient" cx="512" cy="512" r="471" gradientTransform="translate(512 -212.08) rotate(45)" gradientUnits="userSpaceOnUse"><stop offset="0" stop-color="#fff"/><stop offset="0.18" stop-color="#fffefc"/><stop offset="0.34" stop-color="#fffcf1"/><stop offset="0.48" stop-color="#fff7e0"/><stop offset="0.62" stop-color="#fff1c8"/><stop offset="0.75" stop-color="#ffeaa8"/><stop offset="0.87" stop-color="#ffe082"/><stop offset="1" stop-color="#ffd555"/><stop offset="1" stop-color="#ffd554"/></radialGradient></defs><title>Logo</title><g id="Layer_3" data-name="Layer 3"><circle class="cls-1" cx="512" cy="512" r="471" transform="translate(-253.08 471) rotate(-45)"/></g><g id="Logo"><polyline class="cls-2" points="784.15 781.25 157.85 781.25 157.85 165.66"/><polygon class="cls-3" points="707.31 739.9 702.87 752.12 782.88 781.25 702.87 810.37 707.31 822.58 820.89 781.25 707.31 739.9"/><polygon class="cls-3" points="199.2 242.5 186.97 246.94 157.85 166.93 128.72 246.94 116.51 242.5 157.85 128.92 199.2 242.5"/><rect class="cls-4" x="226.15" y="327.21" width="490.37" height="385.73"/><polyline class="cls-2" points="226.15 220.75 226.15 712.95 716.51 712.95 716.51 220.75 767.35 220.75"/><path class="cls-5" d="M361.41,239.06a12,12,0,0,0-5.08-5.7,15,15,0,0,0-7.32-1.8,15.59,15.59,0,0,0-7.17,1.55,15.33,15.33,0,0,0-5.09,4,17.24,17.24,0,0,0-3,5.66,21.29,21.29,0,0,0-1,6.48,20.54,20.54,0,0,0,.87,6,13.75,13.75,0,0,0,2.74,5,13,13,0,0,0,4.87,3.42,18.62,18.62,0,0,0,7.24,1.26,14.1,14.1,0,0,0,11.36-4.76,13.41,13.41,0,0,0,2.31-3.53q.67-1.65,1.26-3.39A2.45,2.45,0,0,1,366,251.6a2.54,2.54,0,0,1,2.38,2.81,12.71,12.71,0,0,1-1,4.33A17.15,17.15,0,0,1,363.9,264a20.51,20.51,0,0,1-6.17,4.43,20.92,20.92,0,0,1-9.3,1.88,23.32,23.32,0,0,1-9.73-1.81,18.44,18.44,0,0,1-6.49-4.72,17.85,17.85,0,0,1-3.64-6.7,27.12,27.12,0,0,1-1.12-7.76,28.06,28.06,0,0,1,1.23-8.07,21.85,21.85,0,0,1,3.85-7.43,20.16,20.16,0,0,1,6.71-5.4,21.07,21.07,0,0,1,9.77-2.1,22.46,22.46,0,0,1,5.91.83,21.36,21.36,0,0,1,5.59,2.42,16.4,16.4,0,0,1,4.36,3.93,11.9,11.9,0,0,1,2.31,5.37,2.47,2.47,0,0,1-1.59,3.1C364.25,242.47,362.85,241.51,361.41,239.06Z" transform="translate(-41 -41)"/><path class="cls-5" d="M383.4,233.22a16.16,16.16,0,0,1,2.24-2.49,17.53,17.53,0,0,1,2.95-2.16,15.56,15.56,0,0,1,3.72-1.55,16.09,16.09,0,0,1,4.43-.58c4.08.1,7.25,1,9.48,2.63a14.44,14.44,0,0,1,4.94,7.64,51.5,51.5,0,0,1,1.87,13q.3,7.91.29,17.42a2.65,2.65,0,0,1-1.48,2.66,2.72,2.72,0,0,1-2.52-.07c-.75-.43-1.12-1.34-1.12-2.74q0-8.14-.28-14.92a59.75,59.75,0,0,0-1.41-11.32,14.16,14.16,0,0,0-3.43-6.82,8.65,8.65,0,0,0-6.34-2.27,12.24,12.24,0,0,0-4.8.87,9.06,9.06,0,0,0-3.42,2.45,23.27,23.27,0,0,0-4.18,8.94,59.93,59.93,0,0,0-1.3,12.11c-.05,2.21-.05,5.87,0,11,.14,2-.42,3.11-1.69,3.28a3.51,3.51,0,0,1-2.6-.32,4.16,4.16,0,0,1-.9-2.67c-.14-1.39-.25-3.43-.33-6.09s-.1-5.35-.1-8v-2.85c0-.94,0-1.89.07-2.85q.13-5.4.32-10.85t.47-10.2q.23-5.7.58-11.39t.86-11.32a2.06,2.06,0,0,1,.94-1.44,3,3,0,0,1,3.86.36,2.22,2.22,0,0,1,.47,1.8Z" transform="translate(-41 -41)"/><path class="cls-5" d="M441.15,248.93l-8.36.29q-4,.15-8,.51a19.57,19.57,0,0,0,.86,5.8,12.9,12.9,0,0,0,2.81,4.9,13.4,13.4,0,0,0,5.05,3.36,20.36,20.36,0,0,0,7.43,1.22,13.56,13.56,0,0,0,3.82-.57,28.07,28.07,0,0,0,4-1.59,14.38,14.38,0,0,0,6.05-6.27,2.14,2.14,0,0,1,1.7-.91,3,3,0,0,1,1.87.55,2.84,2.84,0,0,1,1.12,1.69,3.16,3.16,0,0,1-.58,2.49v-.07a16,16,0,0,1-3.17,4.14,21.24,21.24,0,0,1-4.33,3.17,21.74,21.74,0,0,1-5.08,2.06,21.07,21.07,0,0,1-5.44.72,23,23,0,0,1-9.74-1.91,20,20,0,0,1-6.81-5,19.76,19.76,0,0,1-4-7.07,26.46,26.46,0,0,1-1.26-8.07,23.55,23.55,0,0,1,1.44-8.08,21.61,21.61,0,0,1,4.22-7.06,22.25,22.25,0,0,1,24.3-5.38,21.68,21.68,0,0,1,6.31,3.93,17.62,17.62,0,0,1,4,5.3,13,13,0,0,1,1.41,5.66,9.73,9.73,0,0,1-.87,4.69,2.91,2.91,0,0,1-3.1,1.3C452.3,248.72,447.07,248.79,441.15,248.93Zm-11-13.48a18.34,18.34,0,0,0-3.1,4,20.35,20.35,0,0,0-2,4.9q2.31-.15,6.13-.22l8-.14q3.11,0,6.1,0l5.33,0c1.56,0,2.83,0,3.79.07s1.44.12,1.44.22a11.42,11.42,0,0,0-.72-3.5,12.73,12.73,0,0,0-2.45-4.15A15,15,0,0,0,448,233a16.09,16.09,0,0,0-7.32-1.48A15.54,15.54,0,0,0,430.12,235.45Z" transform="translate(-41 -41)"/><path class="cls-5" d="M475.33,228.17c.38.53.76,1.11,1.12,1.73a10.2,10.2,0,0,1,.9,2.09l.72,2.09A16.27,16.27,0,0,1,480,230a9.12,9.12,0,0,1,2.37-2.42,7.71,7.71,0,0,1,2.85-1.15,19.08,19.08,0,0,1,3.43-.29,9.81,9.81,0,0,1,7.21,2.88,16.49,16.49,0,0,1,4.11,7.86,36.54,36.54,0,0,1,1.48-4.5,11.91,11.91,0,0,1,2.09-3.5,8.78,8.78,0,0,1,3-2.24,10.3,10.3,0,0,1,4.25-.79,12.23,12.23,0,0,1,7.14,1.95,13.51,13.51,0,0,1,4.43,5.23,24.73,24.73,0,0,1,2.24,7.64,81.57,81.57,0,0,1,.47,12.08q-.15,7.71-.15,15.5c0,1.44-.81,2.16-2.45,2.16-1.25,0-2-.49-2.16-1.48a23,23,0,0,1-.29-4.14q0-2.6.14-5.88t.15-7c0-2.59-.11-5.18-.33-7.75a31.21,31.21,0,0,0-1.29-6.92,12.55,12.55,0,0,0-2.82-5A6.53,6.53,0,0,0,511,230.4a4.06,4.06,0,0,0-3.25,1.73,15.1,15.1,0,0,0-2.31,4.55,38.81,38.81,0,0,0-1.47,6.38q-.54,3.57-.83,7.24t-.4,7.18q-.1,3.5-.11,6.09c0,1.2,0,2.22,0,3.06s0,1.46,0,1.84a2.48,2.48,0,0,1-2.74,1.81c-1.1,0-1.81-.32-2.12-.94a6.42,6.42,0,0,1-.47-2.81c0-1,0-2.13.07-3.5s.07-2.9.07-4.58,0-3.78-.1-5.88-.22-4.15-.44-6.2a55,55,0,0,0-.93-5.87,23.47,23.47,0,0,0-1.63-5,9.65,9.65,0,0,0-2.52-3.42,5.46,5.46,0,0,0-3.61-1.26,4.5,4.5,0,0,0-3.56,1.73,15,15,0,0,0-2.53,4.5,36.22,36.22,0,0,0-1.69,6.35q-.65,3.57-1.05,7.24c-.26,2.46-.46,4.83-.57,7.14s-.23,4.33-.33,6.06l-.22,4.11a2.08,2.08,0,0,1-.79,1.58,2.66,2.66,0,0,1-1.73.58,3.14,3.14,0,0,1-1.87-.61,1.9,1.9,0,0,1-.87-1.62l-.43-33.1a2.57,2.57,0,0,0-.43-1.33c-.29-.46-.59-.91-.91-1.37s-.61-.91-.9-1.37a2.49,2.49,0,0,1-.43-1.26,2.27,2.27,0,0,1,.87-1.77,3,3,0,0,1,2-.76A3.59,3.59,0,0,1,475.33,228.17Z" transform="translate(-41 -41)"/><path class="cls-5" d="M550,208.92a6.44,6.44,0,0,1,2.56,2.59,7.33,7.33,0,0,1,.9,3.54,7.21,7.21,0,0,1-1,3.53h.07a7.18,7.18,0,0,1-2.53,2.63,6.46,6.46,0,0,1-3.46,1,6.17,6.17,0,0,1-1.8-.28,16.48,16.48,0,0,1-1.73-.65,9.63,9.63,0,0,1-2.59-2.81,6.3,6.3,0,0,1-1-3.32,7.61,7.61,0,0,1,.19-1.62,6.66,6.66,0,0,1,.68-1.77,8.19,8.19,0,0,1,4.26-3.46,7.18,7.18,0,0,1,2.16-.36A6.89,6.89,0,0,1,550,208.92Zm-1.73,58.33a2.9,2.9,0,0,1-.93,2,2.59,2.59,0,0,1-1.66.64,2.54,2.54,0,0,1-1.77-.68,3.62,3.62,0,0,1-1-1.91l.86-37.71a2.44,2.44,0,0,1,.8-2,2.75,2.75,0,0,1,1.8-.65,3,3,0,0,1,1.8.65,2.36,2.36,0,0,1,.86,2Z" transform="translate(-41 -41)"/><path class="cls-5" d="M582.68,239.13c0-.1,0-.57-.1-1.41a6.28,6.28,0,0,0-1.05-2.74,8.51,8.51,0,0,0-3-2.67,12.09,12.09,0,0,0-5.95-1.18,9,9,0,0,0-4.32.86,7.54,7.54,0,0,0-2.46,2,6,6,0,0,0-1.11,2.31,8.88,8.88,0,0,0-.25,1.8,4.3,4.3,0,0,0,1.76,3.64,18.62,18.62,0,0,0,4.47,2.38q2.7,1.05,5.81,2a28,28,0,0,1,5.8,2.56,14.31,14.31,0,0,1,4.47,4.07,11,11,0,0,1,1.77,6.53,9.77,9.77,0,0,1-.9,4,11.1,11.1,0,0,1-2.71,3.6,13.94,13.94,0,0,1-4.47,2.63,17.34,17.34,0,0,1-6.2,1,16.45,16.45,0,0,1-6.31-1.19,19.79,19.79,0,0,1-5.15-3,14.48,14.48,0,0,1-3.5-4.11,9.26,9.26,0,0,1-1.26-4.51,2.74,2.74,0,0,1,.47-1.91,3.74,3.74,0,0,1,2.09-.65,2.39,2.39,0,0,1,2.48,1.23,20.5,20.5,0,0,1,1.45,2.77l-.07-.07c.38.72.79,1.44,1.22,2.16a7.92,7.92,0,0,0,4.36,3.46,12.69,12.69,0,0,0,4.22.58,12.21,12.21,0,0,0,4.25-.65,8.71,8.71,0,0,0,2.78-1.58,6.13,6.13,0,0,0,1.51-1.95,4.38,4.38,0,0,0,.47-1.8,6.06,6.06,0,0,0-1.76-4.58,14.11,14.11,0,0,0-4.48-2.81,54.57,54.57,0,0,0-5.8-2,31.32,31.32,0,0,1-5.8-2.31A13.76,13.76,0,0,1,561,244a9.07,9.07,0,0,1-1.77-5.87,14.38,14.38,0,0,1,.54-3.46,11.08,11.08,0,0,1,2.06-4,12.34,12.34,0,0,1,4.25-3.35,15.42,15.42,0,0,1,7.06-1.41,19,19,0,0,1,6.24,1,13.64,13.64,0,0,1,4.69,2.71,11.53,11.53,0,0,1,2.92,4.11,13.2,13.2,0,0,1,1,5.19q0,2.52-2.67,2.52a2.55,2.55,0,0,1-1.77-.5A3.49,3.49,0,0,1,582.68,239.13Z" transform="translate(-41 -41)"/><path class="cls-5" d="M595.66,230.62a14,14,0,0,1,2.53.25c.86.17,1.61.35,2.23.54.24-2.21.44-4.36.58-6.45s.26-4.05.36-5.88c.14-2.69.32-4.93.54-6.74s.66-3,1.33-3.49a7.84,7.84,0,0,1,2.24-.44c1.59,0,2.31.92,2.16,2.74-.1.53-.18,1-.25,1.52s-.16,1-.25,1.58a2.56,2.56,0,0,1,0,.47,3.58,3.58,0,0,0,0,.4c-.15,1.49-.3,3.45-.47,5.88s-.38,5.51-.62,9.26l-.14,1.8a32.54,32.54,0,0,1,5.55.36,10.92,10.92,0,0,1,2.85.83c.6.32.95.66,1,1.05a4.25,4.25,0,0,1,.15,1.08,1.78,1.78,0,0,1-.83,1.23,5.3,5.3,0,0,1-1.73.64,13.11,13.11,0,0,1-2.27.26l-2.45,0a8.94,8.94,0,0,1-1.41-.07,2.41,2.41,0,0,0-1,.07v2.6q0,6,.18,10.42t.54,7.31q.87,5.92,4.9,5.92a2.7,2.7,0,0,0,2.56-1.63,13.1,13.1,0,0,0,1.19-3.93,2.68,2.68,0,0,1,.83-1.8,2.36,2.36,0,0,1,1.55-.57,2.85,2.85,0,0,1,2,.93,4.29,4.29,0,0,1,1.15,2.53c-.48,3.27-1.37,5.7-2.66,7.31s-3.37,2.49-6.21,2.64a9,9,0,0,1-5.73-1.19,10.09,10.09,0,0,1-3.6-4.4,25.56,25.56,0,0,1-1.91-7.25,73.73,73.73,0,0,1-.58-9.8c0-1.59,0-3.14.07-4.65s.12-3.19.22-5c-.48-.1-.94-.19-1.37-.26s-.87-.15-1.3-.25h.07l-2.38-.54a9.09,9.09,0,0,1-1.91-.65,2.83,2.83,0,0,1-1.22-1,2,2,0,0,1-.26-1.48,2.34,2.34,0,0,1,1.34-1.69A5.85,5.85,0,0,1,595.66,230.62Z" transform="translate(-41 -41)"/><path class="cls-5" d="M629,227.59c0,.48,0,1,0,1.55s.06,1.17.11,1.84l.22,4.33a13.64,13.64,0,0,1,2.41-4.08,14.56,14.56,0,0,1,3.17-2.77,12.21,12.21,0,0,1,3.46-1.55,13,13,0,0,1,3.28-.47,15.61,15.61,0,0,1,5.77,1.19,10.19,10.19,0,0,1,3.68,2.7,10,10,0,0,1,1.94,3.79,16.61,16.61,0,0,1,.58,4.43,10.8,10.8,0,0,1-2.31,6.85v-.07a5.86,5.86,0,0,1-4.61,2.16q-4.68,0-4.68-1.94a3,3,0,0,1,.46-1.84,2.72,2.72,0,0,1,1.19-.9,8.73,8.73,0,0,1,1.59-.47,6.39,6.39,0,0,0,1.58-.54,3,3,0,0,0,1.19-1.09,3.94,3.94,0,0,0,.47-2.16,9.67,9.67,0,0,0-.32-2.52,5.81,5.81,0,0,0-1.12-2.2,5.45,5.45,0,0,0-2.09-1.55,8.13,8.13,0,0,0-3.32-.58,5.91,5.91,0,0,0-4.18,1.62,12.91,12.91,0,0,0-2.88,4.29,30,30,0,0,0-1.84,6.06,69.91,69.91,0,0,0-1,7c-.24,2.41-.41,4.76-.5,7.07s-.17,4.37-.22,6.2l-.21,4.54a2.4,2.4,0,0,1-.94,1.88,3,3,0,0,1-3.71,0,2.31,2.31,0,0,1-.83-2c0-1,0-2.15.07-3.42s.07-2.85.07-4.73q0-4.83-.32-12.69t-1.41-19.75a2.37,2.37,0,0,1,.72-1.91,2.48,2.48,0,0,1,1.66-.62,3.33,3.33,0,0,1,1.87.58,2.15,2.15,0,0,1,1,1.52Z" transform="translate(-41 -41)"/><path class="cls-5" d="M669.21,288.44c1.24-3,2.31-5.66,3.2-7.89s1.6-4.12,2.13-5.66a35.28,35.28,0,0,0,2-6.56l.43-1.73c-2.07-.82-4.08-2.67-6-5.55a75.88,75.88,0,0,1-5.7-11,90.29,90.29,0,0,1-3.25-9.13q-1.57-5.22-3.17-11.78a3.72,3.72,0,0,1,1-1.81,2.19,2.19,0,0,1,1.55-.65,2.3,2.3,0,0,1,1.4.51,3.57,3.57,0,0,1,1.12,1.59,142.73,142.73,0,0,0,5.73,18.35,58.93,58.93,0,0,0,5.08,10.13,32.31,32.31,0,0,0,2.24,2.95,7.42,7.42,0,0,0,2.09,1.73,15.75,15.75,0,0,0,1.66-3.31,41.89,41.89,0,0,0,1.66-4.15c.57-1.66,1.2-3.59,1.87-5.8s1.44-5.1,2.31-8.37,1.83-7.11,2.88-11.53q1.15-2.53,3.25-2.31a2.06,2.06,0,0,1,2,2.52l-1.59,8.15c-.24,1.25-.59,2.75-1,4.51s-1,3.78-1.7,6.09c-.67,2.16-1.45,4.58-2.34,7.24s-1.94,5.64-3.14,8.91-2.73,7.06-4.43,11.39-3.62,9-5.74,14.06a4.9,4.9,0,0,1-1.87,1.95,3.47,3.47,0,0,1-2,.36,2.69,2.69,0,0,1-1.69-1.19A2,2,0,0,1,669.21,288.44Z" transform="translate(-41 -41)"/><rect class="cls-6" x="294.09" y="275.83" width="353.81" height="195.18"/><line class="cls-7" x1="294.09" y1="471.02" x2="359.72" y2="471.02"/><line class="cls-7" x1="582.28" y1="471.02" x2="647.91" y2="471.02"/><polyline class="cls-8" points="294.09 661 294.09 275.83 647.91 275.83 647.91 661"/><rect class="cls-3" x="260.29" y="655.8" width="67.6" height="10.4"/><rect class="cls-3" x="614.11" y="655.8" width="67.6" height="10.4"/><path class="cls-9" d="M432.4,353.71A35.48,35.48,0,0,1,437.58,370q24-10.78,54.34-12.66,33.63-1.85,62.47,8.15,30.32,9.64,49.17,30.75a63.66,63.66,0,0,1,15.33,25,92.73,92.73,0,0,1,4.36,31.3q-.74,24.09-9.64,41.86a83.15,83.15,0,0,1-24.28,29.46,108.87,108.87,0,0,1-35.59,17.6,151.3,151.3,0,0,1-42.81,5.93,194.08,194.08,0,0,1-32.06-2.76,211.65,211.65,0,0,1-32.81-8.28q0,29.83-.38,60.2t-.38,60.19c-.49,3.19-2.4,5.84-5.71,7.92a19.05,19.05,0,0,1-10.14,3.13,13,13,0,0,1-8.66-3q-3.51-3-3.5-9.61,1-24,1.62-46.73t.65-44.9q0-27.33-.76-53.57-2.26-62.08-2.27-104.2-6,5.18-13-1.85-5.18-8.85-.93-13.3a66.63,66.63,0,0,1,6.66-6.28c1.6-1.23,2.95-2.21,4.06-3s1.91-1.23,2.41-1.48c0-2.69-.26-7-.76-12.93q-.74-7.75,4.07-12.37T432.4,353.71Zm9.87,79.7.63,15.2q.64,17.81,1.42,32.62t1.74,30.4a190.73,190.73,0,0,0,59.77,10,140,140,0,0,0,35.84-4.45A93.28,93.28,0,0,0,571.2,504a67.55,67.55,0,0,0,20.23-21.68q7.59-13,8.35-30.4a53,53,0,0,0-7.4-28.73,75.48,75.48,0,0,0-21.07-22.79,103.09,103.09,0,0,0-31.43-15A133.36,133.36,0,0,0,501.8,380q-30.32,0-61.75,14.09Z" transform="translate(-41 -41)"/><text class="cls-10" transform="translate(676.04 165.33)">TM</text></g></svg>