<svg width="219" height="65" viewBox="0 0 219 65" fill="none" xmlns="http://www.w3.org/2000/svg">
  <g clip-path="url(#clip0_231_3528)">
  <path d="M5.45937 0C2.45701 0 0 2.46207 0 5.47062V64.2772H14.5012C11.5602 63.6239 9.24214 62.6157 7.92332 61.6028L10.8087 54.6621C13.6224 56.4698 17.5175 57.7716 21.7738 57.7716C26.4632 57.7716 30.7195 55.2411 30.7195 50.542C30.7195 47.3618 28.6272 45.1932 23.939 42.6615C18.3129 39.6263 14.0566 35.7951 14.0566 29.9393C14.0566 20.6143 22.135 14.8316 31.9457 14.8316C37.3564 14.8316 40.8185 16.1334 42.7672 17.289L40.0265 24.2285C38.439 23.3606 35.1924 21.9881 31.2255 22.06C25.8877 22.06 22.8576 25.1683 22.8576 28.4217C22.8576 31.747 25.5982 33.7705 30.1429 36.2998C36.0585 39.4082 39.5934 43.3113 39.5934 49.2391C39.5934 57.0325 34.5243 62.4173 26.975 64.2748H42.685L49.2582 29.0714H57.6262L51.1235 64.2748H59.6026C62.605 64.2748 65.062 61.8128 65.062 58.8042V0H5.45937ZM54.8832 24.0139H54.8114C52.2872 24.0139 50.555 22.2062 50.555 19.5318C50.555 16.5685 52.8638 14.4719 55.6045 14.4719C58.2746 14.4719 60.0774 16.2796 60.0774 18.954C60.0056 22.0623 57.6968 24.0139 54.8832 24.0139Z" fill="#BA0C2F"/>
  <path d="M82.9407 23.0021H70.248V15.5567H104.651V23.0021H91.8134V64.2771H82.9407V23.0021Z" fill="black"/>
  <path d="M113.091 24.0139C110.134 24.0139 108.186 21.8453 108.186 19.2429C108.186 16.4965 110.205 14.4 113.164 14.4C116.193 14.4 118.068 16.4965 118.141 19.2429C118.141 21.8453 116.193 24.0139 113.164 24.0139H113.091ZM108.691 64.2771V29.0738H117.564V64.2771H108.691Z" fill="black"/>
  <path d="M125.137 39.5555C125.137 35.5074 124.992 32.1102 124.848 29.0738H132.422L132.856 34.2787H133.072C134.732 31.5312 137.906 28.279 143.894 28.279C148.51 28.279 152.117 30.8815 153.631 34.7846H153.776C155.002 32.833 156.445 31.3873 158.032 30.3756C160.052 29.0018 162.289 28.279 165.246 28.279C171.016 28.279 176.932 32.2552 176.932 43.5318V64.2772H168.275V44.8324C168.275 38.9777 166.255 35.5074 161.999 35.5074C158.969 35.5074 156.733 37.6759 155.795 40.2053C155.507 41.0012 155.362 42.1568 155.362 43.1698V64.2772H146.706V43.8926C146.706 38.9766 144.757 35.5074 140.647 35.5074C137.328 35.5074 135.093 38.1099 134.226 40.4954C133.938 41.4352 133.793 42.4469 133.793 43.4587V64.2772H125.137V39.5555Z" fill="black"/>
  <path d="M190.421 49.1706C190.638 55.5311 195.614 58.2786 201.242 58.2786C205.354 58.2786 208.24 57.6277 210.981 56.6891L212.279 62.7607C209.25 64.0614 205.066 65.0012 200.016 65.0012C188.617 65.0012 181.909 57.9897 181.909 47.219C181.909 37.4601 187.823 28.2802 199.078 28.2802C210.475 28.2802 214.226 37.6782 214.226 45.4125C214.226 47.0763 214.081 48.377 213.938 49.1718H190.421V49.1706ZM205.858 42.9528C205.93 39.6994 204.487 34.3506 198.573 34.3506C193.09 34.3506 190.781 39.3386 190.421 42.9528H205.858Z" fill="black"/>
  <path d="M216.426 28.6851C217.855 28.6851 219 29.8163 219 31.2191C219 32.652 217.856 33.7832 216.411 33.7832C214.951 33.7832 213.778 32.652 213.778 31.2191C213.778 29.8163 214.952 28.6851 216.411 28.6851H216.426ZM216.381 29.2745C215.312 29.2745 214.499 30.1342 214.499 31.2353C214.499 32.3213 215.312 33.1961 216.396 33.1961C217.481 33.2112 218.277 32.3213 218.277 31.2353C218.277 30.1342 217.481 29.2745 216.396 29.2745H216.381ZM216.05 32.4872H215.372V30.0588C215.568 30.0136 215.928 29.9683 216.381 29.9683C216.891 29.9683 217.118 30.0437 217.284 30.1644C217.434 30.2549 217.54 30.4359 217.54 30.6772C217.54 30.9487 217.314 31.1599 217.013 31.2504V31.2806C217.269 31.3711 217.404 31.5671 217.48 31.899C217.554 32.2459 217.6 32.3967 217.645 32.4872H216.923C216.847 32.3967 216.802 32.1856 216.742 31.9291C216.697 31.6727 216.561 31.5671 216.29 31.5671H216.05V32.4872ZM216.065 31.0984H216.305C216.591 31.0984 216.803 30.9928 216.803 30.7666C216.803 30.5554 216.652 30.4347 216.337 30.4347C216.215 30.4347 216.125 30.4498 216.066 30.4498V31.0984H216.065Z" fill="black"/>
  </g>
  <defs>
  <clipPath id="clip0_231_3528">
  <rect width="219" height="65" fill="white"/>
  </clipPath>
  </defs>
</svg>
