<svg id="Layer_1" data-name="Layer 1" xmlns="http://www.w3.org/2000/svg" xmlns:xlink="http://www.w3.org/1999/xlink" viewBox="0 0 942 942"><defs><style>.cls-1,.cls-12,.cls-4,.cls-8,.cls-9{fill:none;}.cls-2{clip-path:url(#clip-path);}.cls-3{fill:url(#radial-gradient);}.cls-4,.cls-8,.cls-9{stroke:#231f20;stroke-linejoin:round;}.cls-4,.cls-8{stroke-linecap:round;}.cls-4,.cls-9{stroke-width:26px;}.cls-5{fill:#231f20;}.cls-6{fill:#85f1f9;}.cls-7{fill:#9f0;}.cls-8{stroke-width:20px;}.cls-10{clip-path:url(#clip-path-2);}.cls-11{fill:#ff7e0a;}.cls-12{stroke:#000;stroke-miterlimit:10;stroke-width:7px;}</style><clipPath id="clip-path" transform="translate(-41 -41)"><path class="cls-1" d="M41,512c0,260.13,210.87,471,471,471S983,772.13,983,512,772.13,41,512,41,41,251.87,41,512"/></clipPath><radialGradient id="radial-gradient" cx="0" cy="1024" r="1" gradientTransform="matrix(471, 0, 0, -471, 471, 482775.38)" gradientUnits="userSpaceOnUse"><stop offset="0" stop-color="#fff"/><stop offset="0.18" stop-color="#fffefc"/><stop offset="0.34" stop-color="#fffcf1"/><stop offset="0.48" stop-color="#fff7e0"/><stop offset="0.62" stop-color="#fff1c8"/><stop offset="0.75" stop-color="#ffeaa8"/><stop offset="0.87" stop-color="#ffe082"/><stop offset="1" stop-color="#ffd555"/><stop offset="1" stop-color="#ffd554"/></radialGradient><clipPath id="clip-path-2" transform="translate(-41 -41)"><rect class="cls-1" width="1024" height="1024"/></clipPath></defs><title>Logo_coding</title><g class="cls-2"><rect class="cls-3" width="942" height="942"/></g><polyline class="cls-4" points="784.15 781.25 157.85 781.25 157.85 165.66"/><polygon class="cls-5" points="707.31 739.9 702.87 752.12 782.88 781.25 702.87 810.37 707.31 822.58 820.89 781.25 707.31 739.9"/><polygon class="cls-5" points="199.2 242.5 186.97 246.94 157.85 166.93 128.72 246.94 116.51 242.5 157.85 128.92 199.2 242.5"/><rect class="cls-6" x="226.15" y="327.21" width="490.37" height="385.73"/><polyline class="cls-4" points="226.15 220.75 226.15 712.95 716.52 712.95 716.52 220.75 767.35 220.75"/><rect class="cls-7" x="294.1" y="275.83" width="353.81" height="195.18"/><line class="cls-8" x1="294.09" y1="471.02" x2="359.72" y2="471.02"/><line class="cls-8" x1="582.28" y1="471.02" x2="647.91" y2="471.02"/><polyline class="cls-9" points="294.09 661 294.09 275.83 647.9 275.83 647.9 661"/><rect class="cls-5" x="260.29" y="655.8" width="67.6" height="10.4"/><rect class="cls-5" x="614.11" y="655.8" width="67.6" height="10.4"/><g class="cls-10"><path class="cls-11" d="M432.4,353.71A35.48,35.48,0,0,1,437.58,370q24-10.78,54.34-12.66,33.63-1.85,62.47,8.15,30.32,9.64,49.17,30.75a63.69,63.69,0,0,1,15.33,25,92.82,92.82,0,0,1,4.36,31.31q-.74,24.09-9.64,41.86a83.15,83.15,0,0,1-24.28,29.46,108.87,108.87,0,0,1-35.59,17.6,151.3,151.3,0,0,1-42.81,5.92,194,194,0,0,1-32.06-2.75,211.65,211.65,0,0,1-32.81-8.28q0,29.83-.38,60.2t-.38,60.19c-.49,3.19-2.4,5.84-5.71,7.92a19.05,19.05,0,0,1-10.14,3.13,13,13,0,0,1-8.66-3q-3.51-3-3.5-9.61,1-24,1.62-46.74t.65-44.89q0-27.33-.76-53.57-2.26-62.08-2.27-104.2-5.94,5.18-13-1.85-5.18-8.85-.93-13.3a66.63,66.63,0,0,1,6.66-6.28c1.6-1.23,2.95-2.21,4.06-3s1.91-1.23,2.41-1.48c0-2.69-.26-7-.76-12.93q-.74-7.75,4.07-12.37t13.32-.94m9.87,79.7.63,15.2q.64,17.81,1.42,32.62t1.74,30.4a190.73,190.73,0,0,0,59.77,10,140,140,0,0,0,35.84-4.45A93.28,93.28,0,0,0,571.2,504a67.55,67.55,0,0,0,20.23-21.68q7.59-13,8.35-30.4a53,53,0,0,0-7.4-28.73,75.48,75.48,0,0,0-21.07-22.79,103.32,103.32,0,0,0-31.43-15A133.36,133.36,0,0,0,501.8,380q-30.32,0-61.75,14.09Z" transform="translate(-41 -41)"/><path class="cls-12" d="M432.4,353.71A35.48,35.48,0,0,1,437.58,370q24-10.78,54.34-12.66,33.63-1.85,62.47,8.15,30.32,9.64,49.17,30.75a63.69,63.69,0,0,1,15.33,25,92.82,92.82,0,0,1,4.36,31.31q-.74,24.09-9.64,41.86a83.15,83.15,0,0,1-24.28,29.46,108.87,108.87,0,0,1-35.59,17.6,151.3,151.3,0,0,1-42.81,5.92,194,194,0,0,1-32.06-2.75,211.65,211.65,0,0,1-32.81-8.28q0,29.83-.38,60.2t-.38,60.19c-.49,3.19-2.4,5.84-5.71,7.92a19.05,19.05,0,0,1-10.14,3.13,13,13,0,0,1-8.66-3q-3.51-3-3.5-9.61,1-24,1.62-46.74t.65-44.89q0-27.33-.76-53.57-2.26-62.08-2.27-104.2-5.94,5.18-13-1.85-5.18-8.85-.93-13.3a66.63,66.63,0,0,1,6.66-6.28c1.6-1.23,2.95-2.21,4.06-3s1.91-1.23,2.41-1.48c0-2.69-.26-7-.76-12.93q-.74-7.75,4.07-12.37T432.4,353.71Zm9.87,79.7.63,15.2q.64,17.81,1.42,32.62t1.74,30.4a190.73,190.73,0,0,0,59.77,10,140,140,0,0,0,35.84-4.45A93.28,93.28,0,0,0,571.2,504a67.55,67.55,0,0,0,20.23-21.68q7.59-13,8.35-30.4a53,53,0,0,0-7.4-28.73,75.48,75.48,0,0,0-21.07-22.79,103.32,103.32,0,0,0-31.43-15A133.36,133.36,0,0,0,501.8,380q-30.32,0-61.75,14.09Z" transform="translate(-41 -41)"/></g><path d="M434,260.06a7.16,7.16,0,0,1-5.08-2.08,6.62,6.62,0,0,1-2.05-4.9q0-5.12.49-15.38t.48-15.38q0-5.69-.23-17.07t-.23-17.07q0-2.82,2.72-5.62a8,8,0,0,1,5.79-2.79q1.69,0,8.51,3.18,7.95,3.8,9.44,4.25a65.59,65.59,0,0,1,25.63,15.07q12.67,12.16,12.67,26.87a36.38,36.38,0,0,1-16.31,29.94q-8.5,5.54-23.94,5.54a40.25,40.25,0,0,1-8.61-1.08A29.77,29.77,0,0,1,434,260.06Zm28.81-52.71q-5-3.12-21.33-9.84v50.75a15.18,15.18,0,0,0,4.59,1.93,24.44,24.44,0,0,0,5.77.64q11.07,0,15.89-3.08A21.12,21.12,0,0,0,475,239.8a21.86,21.86,0,0,0,2.69-10.45Q477.7,216.63,462.83,207.35Z" transform="translate(-41 -41)"/><path d="M526.4,261.9q-12.24,0-20-5.84-8.61-6.47-8.61-18.2,0-13,6.81-22Q512.15,206,525,206q8.93,0,14.82,2.87,7.74,3.79,7.74,11.79,0,5.64-6.31,10a81.58,81.58,0,0,1-11.53,5.84l-17.28,7.64a15.46,15.46,0,0,0,5.95,4,22.23,22.23,0,0,0,8,1.33A22.5,22.5,0,0,0,538,246.62q4.26-2.51,6.82-2.51c3.56,0,5.33,1.73,5.33,5.18q0,5.85-8.56,9.54A38.24,38.24,0,0,1,526.4,261.9ZM525,218.37a11.46,11.46,0,0,0-8.15,3.18q-3.39,3.18-5.44,9.54,5.8-2.52,11.54-5a85.07,85.07,0,0,0,11-5.8A18.07,18.07,0,0,0,525,218.37Z" transform="translate(-41 -41)"/><path d="M586.8,255.75a6.23,6.23,0,0,1-2.1,4.2,6.59,6.59,0,0,1-4.57,1.64q-5.18,0-7.33-5.33-5.53-13.84-17-41.32a7.43,7.43,0,0,1-.66-2.92,6,6,0,0,1,2.23-4.69,7.53,7.53,0,0,1,5.1-1.93,6.48,6.48,0,0,1,6.3,4q2.93,6.21,11.39,29,2.71-5.79,7.48-17.64,1.44-3.95,4.46-11a6.78,6.78,0,0,1,6.36-4.1,7.64,7.64,0,0,1,5.1,1.9,5.92,5.92,0,0,1,2.23,4.71q0,1.85-8.3,20.31Q590.74,247.71,586.8,255.75Z" transform="translate(-41 -41)"/><text x="-41" y="-41"/></svg>