<svg width="282" height="64" viewBox="0 0 282 64" fill="none" xmlns="http://www.w3.org/2000/svg">
<path d="M87.2318 44.0821C86.6861 44.3387 85.4824 44.7398 83.9416 44.7398C80.4748 44.7398 78.2278 42.3977 78.2278 38.8846C78.2278 35.3715 80.6513 32.7727 84.391 32.7727C85.6268 32.7727 86.7182 33.0775 87.28 33.3823L86.7985 34.9704C86.3009 34.7137 85.5145 34.425 84.3749 34.425C81.7427 34.425 80.3303 36.3981 80.3303 38.7562C80.3303 41.4031 82.0316 43.0394 84.3107 43.0394C85.4984 43.0394 86.2849 42.7506 86.8627 42.494L87.2158 44.05L87.2318 44.0821Z" fill="#fff"/>
<path d="M90.5862 27.6875H92.6727V34.8421H92.7208C93.0579 34.2485 93.5715 33.7031 94.2135 33.3663C94.8234 32.9813 95.5617 32.7727 96.3481 32.7727C97.8889 32.7727 100.361 33.7192 100.361 37.6815V44.4992H98.2741V37.89C98.2741 36.0452 97.584 34.5052 95.6259 34.5052C94.2777 34.5052 93.2344 35.4517 92.8332 36.5906C92.7208 36.8794 92.6887 37.1842 92.6887 37.5852V44.4992H90.6022V27.6875H90.5862Z" fill="#fff"/>
<path d="M104.566 36.6227C104.566 35.2752 104.55 34.1042 104.469 33.0454H106.299L106.395 35.2912H106.46C106.973 33.7512 108.257 32.7727 109.654 32.7727C109.862 32.7727 110.039 32.7887 110.215 32.8208V34.794C110.007 34.7619 109.782 34.7458 109.509 34.7458C108.033 34.7458 107.005 35.8527 106.716 37.3927C106.668 37.6975 106.652 38.0344 106.652 38.3712V44.4992H104.566V36.6067V36.6227Z" fill="#fff"/>
<path d="M117.936 44.7719C114.854 44.7719 112.43 42.494 112.43 38.8685C112.43 35.0346 114.966 32.7888 118.112 32.7888C121.258 32.7888 123.633 35.179 123.633 38.66C123.633 42.9271 120.664 44.7719 117.952 44.7719H117.936ZM118.032 43.2158C120.022 43.2158 121.515 41.339 121.515 38.7402C121.515 36.7992 120.536 34.3608 118.08 34.3608C115.624 34.3608 114.565 36.6388 114.565 38.8204C114.565 41.339 115.994 43.2319 118 43.2319H118.016L118.032 43.2158Z" fill="#fff"/>
<path d="M127.132 36.1415C127.132 34.9383 127.116 33.9919 127.036 33.0454H128.882L128.994 34.9223H129.042C129.604 33.8635 130.936 32.7888 132.83 32.7888C134.419 32.7888 136.875 33.7352 136.875 37.6654V44.5152H134.788V37.906C134.788 36.0613 134.098 34.4892 132.14 34.4892C130.792 34.4892 129.716 35.4677 129.347 36.6227C129.251 36.8794 129.203 37.2644 129.203 37.6013V44.5152H127.116V36.1575L127.132 36.1415Z" fill="#fff"/>
<path d="M145.911 44.7719C142.829 44.7719 140.406 42.494 140.406 38.8685C140.406 35.0346 142.941 32.7888 146.087 32.7888C149.233 32.7888 151.608 35.179 151.608 38.66C151.608 42.9271 148.639 44.7719 145.927 44.7719H145.911ZM146.007 43.2158C147.997 43.2158 149.49 41.339 149.49 38.7402C149.49 36.7992 148.511 34.3608 146.055 34.3608C143.599 34.3608 142.54 36.6388 142.54 38.8204C142.54 41.339 143.969 43.2319 145.975 43.2319H145.991L146.007 43.2158Z" fill="#fff"/>
<path d="M154.786 42.3656C155.428 42.7506 156.52 43.1677 157.563 43.1677C159.055 43.1677 159.762 42.4298 159.762 41.4673C159.762 40.5048 159.168 39.9594 157.659 39.3819C155.573 38.6279 154.61 37.489 154.61 36.1415C154.61 34.2967 156.118 32.7727 158.574 32.7727C159.73 32.7727 160.757 33.0775 161.367 33.4785L160.869 34.9704C160.42 34.7137 159.585 34.3127 158.526 34.3127C157.29 34.3127 156.632 35.0185 156.632 35.8687C156.632 36.8152 157.29 37.2483 158.783 37.8419C160.757 38.5798 161.8 39.5744 161.8 41.2748C161.8 43.3121 160.211 44.7398 157.531 44.7398C156.279 44.7398 155.107 44.4029 154.305 43.9377L154.802 42.3817L154.786 42.3656Z" fill="#fff"/>
<path d="M166.358 44.7719C165.556 44.7719 164.978 44.1302 164.978 43.28C164.978 42.4298 165.572 41.7881 166.406 41.7881C167.241 41.7881 167.803 42.3977 167.803 43.28C167.803 44.1623 167.241 44.7719 166.374 44.7719H166.358Z" fill="#898A8D"/>
<path d="M172.505 31.1044C171.751 31.1044 171.253 30.5108 171.253 29.821C171.253 29.0831 171.767 28.5217 172.553 28.5217C173.34 28.5217 173.837 29.0831 173.837 29.821C173.837 30.5108 173.34 31.1044 172.537 31.1044H172.521H172.505ZM171.51 44.5152V33.0454H173.597V44.5152H171.51Z" fill="#898A8D"/>
<path d="M177.898 36.1415C177.898 34.9383 177.882 33.9919 177.802 33.0454H179.648L179.76 34.9223H179.808C180.37 33.8635 181.702 32.7888 183.596 32.7888C185.185 32.7888 187.64 33.7352 187.64 37.6654V44.5152H185.554V37.906C185.554 36.0613 184.864 34.4892 182.906 34.4892C181.557 34.4892 180.482 35.4677 180.113 36.6227C180.017 36.8794 179.969 37.2644 179.969 37.6013V44.5152H177.882V36.1575L177.898 36.1415Z" fill="#898A8D"/>
<path d="M194.285 30.2863V33.0294H197.271V34.6175H194.285V40.7775C194.285 42.2052 194.686 43.0073 195.842 43.0073C196.404 43.0073 196.741 42.9592 197.046 42.8629L197.142 44.451C196.741 44.5954 196.099 44.7398 195.296 44.7398C194.317 44.7398 193.547 44.4029 193.049 43.8575C192.488 43.2158 192.247 42.2052 192.247 40.8577V34.6335H190.465V33.0454H192.247V30.944L194.285 30.3023V30.2863Z" fill="#898A8D"/>
<path d="M201.508 39.1573C201.556 41.9486 203.337 43.1196 205.424 43.1196C206.917 43.1196 207.848 42.8629 208.602 42.5261L208.987 44.0179C208.249 44.3548 206.965 44.7558 205.151 44.7558C201.652 44.7558 199.518 42.4138 199.518 38.9809C199.518 35.5479 201.572 32.8048 204.926 32.8048C208.666 32.8048 209.645 36.0933 209.645 38.2108C209.645 38.644 209.629 38.9488 209.581 39.1894H201.54L201.508 39.1573ZM207.591 37.6654C207.623 36.334 207.045 34.2806 204.718 34.2806C202.583 34.2806 201.684 36.2217 201.524 37.6654H207.591Z" fill="#898A8D"/>
<path d="M213.032 36.6227C213.032 35.2752 213.016 34.1042 212.935 33.0454H214.765L214.861 35.2912H214.926C215.439 33.7512 216.723 32.7727 218.119 32.7727C218.328 32.7727 218.505 32.7887 218.681 32.8208V34.794C218.473 34.7619 218.248 34.7458 217.975 34.7458C216.498 34.7458 215.455 35.8527 215.182 37.3927C215.134 37.6975 215.118 38.0344 215.118 38.3712V44.4992H213.032V36.6067V36.6227Z" fill="#898A8D"/>
<path d="M229.98 41.756C229.98 42.7506 230.029 43.7292 230.141 44.4992H228.263L228.07 43.0554H228.006C227.396 43.9537 226.128 44.7558 224.507 44.7558C222.18 44.7558 220.992 43.1196 220.992 41.4673C220.992 38.6921 223.464 37.1842 227.894 37.2002V36.9596C227.894 36.0131 227.637 34.2806 225.294 34.3127C224.202 34.3127 223.095 34.6175 222.292 35.1629L221.811 33.7673C222.758 33.1737 224.154 32.7727 225.599 32.7727C229.13 32.7727 229.98 35.1629 229.98 37.4569V41.74V41.756ZM227.942 38.66C225.663 38.6119 223.079 39.0129 223.079 41.2427C223.079 42.6223 223.978 43.2319 225.021 43.2319C226.53 43.2319 227.509 42.2854 227.846 41.3069C227.91 41.0983 227.942 40.8577 227.942 40.6492V38.66Z" fill="#898A8D"/>
<path d="M241.713 44.0821C241.167 44.3387 239.964 44.7398 238.423 44.7398C234.956 44.7398 232.709 42.3977 232.709 38.8846C232.709 35.3715 235.133 32.7727 238.872 32.7727C240.108 32.7727 241.199 33.0775 241.761 33.3823L241.296 34.9704C240.798 34.7137 240.012 34.425 238.872 34.425C236.24 34.425 234.828 36.3981 234.828 38.7562C234.828 41.4031 236.529 43.0394 238.808 43.0394C239.996 43.0394 240.782 42.7506 241.36 42.494L241.713 44.05V44.0821Z" fill="#898A8D"/>
<path d="M248.004 30.2863V33.0294H250.99V34.6175H248.004V40.7775C248.004 42.2052 248.406 43.0073 249.561 43.0073C250.123 43.0073 250.46 42.9592 250.765 42.8629L250.861 44.451C250.46 44.5954 249.818 44.7398 249.016 44.7398C248.037 44.7398 247.266 44.4029 246.769 43.8575C246.207 43.2158 245.966 42.2052 245.966 40.8577V34.6335H244.185V33.0454H245.966V30.944L248.004 30.3023V30.2863Z" fill="#898A8D"/>
<path d="M255.163 31.1044C254.408 31.1044 253.911 30.5108 253.911 29.821C253.911 29.0831 254.424 28.5217 255.211 28.5217C255.997 28.5217 256.495 29.0831 256.495 29.821C256.495 30.5108 255.997 31.1044 255.195 31.1044H255.179H255.163ZM254.168 44.5152V33.0454H256.254V44.5152H254.168Z" fill="#898A8D"/>
<path d="M261.47 33.0454L263.717 39.4621C264.103 40.5208 264.408 41.4833 264.648 42.4298H264.713C264.969 41.4833 265.306 40.5369 265.692 39.4621L267.923 33.0454H270.105L265.595 44.5152H263.605L259.24 33.0454H261.47Z" fill="#898A8D"/>
<path d="M273.444 39.1573C273.492 41.9486 275.274 43.1196 277.36 43.1196C278.853 43.1196 279.784 42.8629 280.538 42.5261L280.923 44.0179C280.185 44.3548 278.901 44.7558 277.087 44.7558C273.588 44.7558 271.454 42.4138 271.454 38.9809C271.454 35.5479 273.508 32.8048 276.862 32.8048C280.602 32.8048 281.581 36.0933 281.581 38.2108C281.581 38.644 281.565 38.9488 281.517 39.1894H273.476L273.444 39.1573ZM279.527 37.6654C279.559 36.334 278.981 34.2806 276.654 34.2806C274.519 34.2806 273.62 36.2217 273.46 37.6654H279.527Z" fill="#898A8D"/>
</svg>
